G04 #@! TF.GenerationSoftware,KiCad,Pcbnew,(5.1.9)-1*
G04 #@! TF.CreationDate,2021-05-05T15:58:12+09:00*
G04 #@! TF.ProjectId,PowerPathController_LTC4417,506f7765-7250-4617-9468-436f6e74726f,rev?*
G04 #@! TF.SameCoordinates,Original*
G04 #@! TF.FileFunction,Legend,Top*
G04 #@! TF.FilePolarity,Positive*
%FSLAX46Y46*%
G04 Gerber Fmt 4.6, Leading zero omitted, Abs format (unit mm)*
G04 Created by KiCad (PCBNEW (5.1.9)-1) date 2021-05-05 15:58:12*
%MOMM*%
%LPD*%
G01*
G04 APERTURE LIST*
%ADD10C,0.150000*%
%ADD11C,0.300000*%
%ADD12C,0.120000*%
%ADD13C,0.152400*%
%ADD14C,0.127000*%
%ADD15C,0.400000*%
G04 APERTURE END LIST*
D10*
X165019047Y-114027380D02*
X165019047Y-113027380D01*
X165400000Y-113027380D01*
X165495238Y-113075000D01*
X165542857Y-113122619D01*
X165590476Y-113217857D01*
X165590476Y-113360714D01*
X165542857Y-113455952D01*
X165495238Y-113503571D01*
X165400000Y-113551190D01*
X165019047Y-113551190D01*
X166161904Y-114027380D02*
X166066666Y-113979761D01*
X166019047Y-113932142D01*
X165971428Y-113836904D01*
X165971428Y-113551190D01*
X166019047Y-113455952D01*
X166066666Y-113408333D01*
X166161904Y-113360714D01*
X166304761Y-113360714D01*
X166400000Y-113408333D01*
X166447619Y-113455952D01*
X166495238Y-113551190D01*
X166495238Y-113836904D01*
X166447619Y-113932142D01*
X166400000Y-113979761D01*
X166304761Y-114027380D01*
X166161904Y-114027380D01*
X166828571Y-113360714D02*
X167019047Y-114027380D01*
X167209523Y-113551190D01*
X167400000Y-114027380D01*
X167590476Y-113360714D01*
X168352380Y-113979761D02*
X168257142Y-114027380D01*
X168066666Y-114027380D01*
X167971428Y-113979761D01*
X167923809Y-113884523D01*
X167923809Y-113503571D01*
X167971428Y-113408333D01*
X168066666Y-113360714D01*
X168257142Y-113360714D01*
X168352380Y-113408333D01*
X168400000Y-113503571D01*
X168400000Y-113598809D01*
X167923809Y-113694047D01*
X168828571Y-114027380D02*
X168828571Y-113360714D01*
X168828571Y-113551190D02*
X168876190Y-113455952D01*
X168923809Y-113408333D01*
X169019047Y-113360714D01*
X169114285Y-113360714D01*
X169447619Y-114027380D02*
X169447619Y-113027380D01*
X169828571Y-113027380D01*
X169923809Y-113075000D01*
X169971428Y-113122619D01*
X170019047Y-113217857D01*
X170019047Y-113360714D01*
X169971428Y-113455952D01*
X169923809Y-113503571D01*
X169828571Y-113551190D01*
X169447619Y-113551190D01*
X170876190Y-114027380D02*
X170876190Y-113503571D01*
X170828571Y-113408333D01*
X170733333Y-113360714D01*
X170542857Y-113360714D01*
X170447619Y-113408333D01*
X170876190Y-113979761D02*
X170780952Y-114027380D01*
X170542857Y-114027380D01*
X170447619Y-113979761D01*
X170400000Y-113884523D01*
X170400000Y-113789285D01*
X170447619Y-113694047D01*
X170542857Y-113646428D01*
X170780952Y-113646428D01*
X170876190Y-113598809D01*
X171209523Y-113360714D02*
X171590476Y-113360714D01*
X171352380Y-113027380D02*
X171352380Y-113884523D01*
X171400000Y-113979761D01*
X171495238Y-114027380D01*
X171590476Y-114027380D01*
X171923809Y-114027380D02*
X171923809Y-113027380D01*
X172352380Y-114027380D02*
X172352380Y-113503571D01*
X172304761Y-113408333D01*
X172209523Y-113360714D01*
X172066666Y-113360714D01*
X171971428Y-113408333D01*
X171923809Y-113455952D01*
X173400000Y-113932142D02*
X173352380Y-113979761D01*
X173209523Y-114027380D01*
X173114285Y-114027380D01*
X172971428Y-113979761D01*
X172876190Y-113884523D01*
X172828571Y-113789285D01*
X172780952Y-113598809D01*
X172780952Y-113455952D01*
X172828571Y-113265476D01*
X172876190Y-113170238D01*
X172971428Y-113075000D01*
X173114285Y-113027380D01*
X173209523Y-113027380D01*
X173352380Y-113075000D01*
X173400000Y-113122619D01*
X173971428Y-114027380D02*
X173876190Y-113979761D01*
X173828571Y-113932142D01*
X173780952Y-113836904D01*
X173780952Y-113551190D01*
X173828571Y-113455952D01*
X173876190Y-113408333D01*
X173971428Y-113360714D01*
X174114285Y-113360714D01*
X174209523Y-113408333D01*
X174257142Y-113455952D01*
X174304761Y-113551190D01*
X174304761Y-113836904D01*
X174257142Y-113932142D01*
X174209523Y-113979761D01*
X174114285Y-114027380D01*
X173971428Y-114027380D01*
X174733333Y-113360714D02*
X174733333Y-114027380D01*
X174733333Y-113455952D02*
X174780952Y-113408333D01*
X174876190Y-113360714D01*
X175019047Y-113360714D01*
X175114285Y-113408333D01*
X175161904Y-113503571D01*
X175161904Y-114027380D01*
X175495238Y-113360714D02*
X175876190Y-113360714D01*
X175638095Y-113027380D02*
X175638095Y-113884523D01*
X175685714Y-113979761D01*
X175780952Y-114027380D01*
X175876190Y-114027380D01*
X176209523Y-114027380D02*
X176209523Y-113360714D01*
X176209523Y-113551190D02*
X176257142Y-113455952D01*
X176304761Y-113408333D01*
X176400000Y-113360714D01*
X176495238Y-113360714D01*
X176971428Y-114027380D02*
X176876190Y-113979761D01*
X176828571Y-113932142D01*
X176780952Y-113836904D01*
X176780952Y-113551190D01*
X176828571Y-113455952D01*
X176876190Y-113408333D01*
X176971428Y-113360714D01*
X177114285Y-113360714D01*
X177209523Y-113408333D01*
X177257142Y-113455952D01*
X177304761Y-113551190D01*
X177304761Y-113836904D01*
X177257142Y-113932142D01*
X177209523Y-113979761D01*
X177114285Y-114027380D01*
X176971428Y-114027380D01*
X177876190Y-114027380D02*
X177780952Y-113979761D01*
X177733333Y-113884523D01*
X177733333Y-113027380D01*
X178400000Y-114027380D02*
X178304761Y-113979761D01*
X178257142Y-113884523D01*
X178257142Y-113027380D01*
X179161904Y-113979761D02*
X179066666Y-114027380D01*
X178876190Y-114027380D01*
X178780952Y-113979761D01*
X178733333Y-113884523D01*
X178733333Y-113503571D01*
X178780952Y-113408333D01*
X178876190Y-113360714D01*
X179066666Y-113360714D01*
X179161904Y-113408333D01*
X179209523Y-113503571D01*
X179209523Y-113598809D01*
X178733333Y-113694047D01*
X179638095Y-114027380D02*
X179638095Y-113360714D01*
X179638095Y-113551190D02*
X179685714Y-113455952D01*
X179733333Y-113408333D01*
X179828571Y-113360714D01*
X179923809Y-113360714D01*
X167519047Y-114677380D02*
X167852380Y-115677380D01*
X168185714Y-114677380D01*
X168519047Y-115582142D02*
X168566666Y-115629761D01*
X168519047Y-115677380D01*
X168471428Y-115629761D01*
X168519047Y-115582142D01*
X168519047Y-115677380D01*
X169185714Y-114677380D02*
X169280952Y-114677380D01*
X169376190Y-114725000D01*
X169423809Y-114772619D01*
X169471428Y-114867857D01*
X169519047Y-115058333D01*
X169519047Y-115296428D01*
X169471428Y-115486904D01*
X169423809Y-115582142D01*
X169376190Y-115629761D01*
X169280952Y-115677380D01*
X169185714Y-115677380D01*
X169090476Y-115629761D01*
X169042857Y-115582142D01*
X168995238Y-115486904D01*
X168947619Y-115296428D01*
X168947619Y-115058333D01*
X168995238Y-114867857D01*
X169042857Y-114772619D01*
X169090476Y-114725000D01*
X169185714Y-114677380D01*
X169947619Y-115582142D02*
X169995238Y-115629761D01*
X169947619Y-115677380D01*
X169900000Y-115629761D01*
X169947619Y-115582142D01*
X169947619Y-115677380D01*
X170947619Y-115677380D02*
X170376190Y-115677380D01*
X170661904Y-115677380D02*
X170661904Y-114677380D01*
X170566666Y-114820238D01*
X170471428Y-114915476D01*
X170376190Y-114963095D01*
X172138095Y-115677380D02*
X172138095Y-114677380D01*
X172138095Y-115058333D02*
X172233333Y-115010714D01*
X172423809Y-115010714D01*
X172519047Y-115058333D01*
X172566666Y-115105952D01*
X172614285Y-115201190D01*
X172614285Y-115486904D01*
X172566666Y-115582142D01*
X172519047Y-115629761D01*
X172423809Y-115677380D01*
X172233333Y-115677380D01*
X172138095Y-115629761D01*
X172947619Y-115010714D02*
X173185714Y-115677380D01*
X173423809Y-115010714D02*
X173185714Y-115677380D01*
X173090476Y-115915476D01*
X173042857Y-115963095D01*
X172947619Y-116010714D01*
X174566666Y-115677380D02*
X174566666Y-114677380D01*
X175138095Y-115677380D01*
X175138095Y-114677380D01*
X175757142Y-115677380D02*
X175661904Y-115629761D01*
X175614285Y-115582142D01*
X175566666Y-115486904D01*
X175566666Y-115201190D01*
X175614285Y-115105952D01*
X175661904Y-115058333D01*
X175757142Y-115010714D01*
X175900000Y-115010714D01*
X175995238Y-115058333D01*
X176042857Y-115105952D01*
X176090476Y-115201190D01*
X176090476Y-115486904D01*
X176042857Y-115582142D01*
X175995238Y-115629761D01*
X175900000Y-115677380D01*
X175757142Y-115677380D01*
X176519047Y-115677380D02*
X176519047Y-115010714D01*
X176519047Y-115201190D02*
X176566666Y-115105952D01*
X176614285Y-115058333D01*
X176709523Y-115010714D01*
X176804761Y-115010714D01*
X177138095Y-115677380D02*
X177138095Y-115010714D01*
X177138095Y-114677380D02*
X177090476Y-114725000D01*
X177138095Y-114772619D01*
X177185714Y-114725000D01*
X177138095Y-114677380D01*
X177138095Y-114772619D01*
D11*
X124092857Y-112942857D02*
X124307142Y-113014285D01*
X124378571Y-113085714D01*
X124450000Y-113228571D01*
X124450000Y-113442857D01*
X124378571Y-113585714D01*
X124307142Y-113657142D01*
X124164285Y-113728571D01*
X123592857Y-113728571D01*
X123592857Y-112228571D01*
X124092857Y-112228571D01*
X124235714Y-112300000D01*
X124307142Y-112371428D01*
X124378571Y-112514285D01*
X124378571Y-112657142D01*
X124307142Y-112800000D01*
X124235714Y-112871428D01*
X124092857Y-112942857D01*
X123592857Y-112942857D01*
X125735714Y-113728571D02*
X125735714Y-112942857D01*
X125664285Y-112800000D01*
X125521428Y-112728571D01*
X125235714Y-112728571D01*
X125092857Y-112800000D01*
X125735714Y-113657142D02*
X125592857Y-113728571D01*
X125235714Y-113728571D01*
X125092857Y-113657142D01*
X125021428Y-113514285D01*
X125021428Y-113371428D01*
X125092857Y-113228571D01*
X125235714Y-113157142D01*
X125592857Y-113157142D01*
X125735714Y-113085714D01*
X126235714Y-112728571D02*
X126807142Y-112728571D01*
X126450000Y-112228571D02*
X126450000Y-113514285D01*
X126521428Y-113657142D01*
X126664285Y-113728571D01*
X126807142Y-113728571D01*
X127092857Y-112728571D02*
X127664285Y-112728571D01*
X127307142Y-112228571D02*
X127307142Y-113514285D01*
X127378571Y-113657142D01*
X127521428Y-113728571D01*
X127664285Y-113728571D01*
X128735714Y-113657142D02*
X128592857Y-113728571D01*
X128307142Y-113728571D01*
X128164285Y-113657142D01*
X128092857Y-113514285D01*
X128092857Y-112942857D01*
X128164285Y-112800000D01*
X128307142Y-112728571D01*
X128592857Y-112728571D01*
X128735714Y-112800000D01*
X128807142Y-112942857D01*
X128807142Y-113085714D01*
X128092857Y-113228571D01*
X129450000Y-113728571D02*
X129450000Y-112728571D01*
X129450000Y-113014285D02*
X129521428Y-112871428D01*
X129592857Y-112800000D01*
X129735714Y-112728571D01*
X129878571Y-112728571D01*
X130235714Y-112728571D02*
X130592857Y-113728571D01*
X130950000Y-112728571D02*
X130592857Y-113728571D01*
X130450000Y-114085714D01*
X130378571Y-114157142D01*
X130235714Y-114228571D01*
X123571428Y-87850000D02*
X124285714Y-87850000D01*
X123428571Y-88278571D02*
X123928571Y-86778571D01*
X124428571Y-88278571D01*
X125571428Y-88278571D02*
X125571428Y-86778571D01*
X125571428Y-88207142D02*
X125428571Y-88278571D01*
X125142857Y-88278571D01*
X125000000Y-88207142D01*
X124928571Y-88135714D01*
X124857142Y-87992857D01*
X124857142Y-87564285D01*
X124928571Y-87421428D01*
X125000000Y-87350000D01*
X125142857Y-87278571D01*
X125428571Y-87278571D01*
X125571428Y-87350000D01*
X126928571Y-88278571D02*
X126928571Y-87492857D01*
X126857142Y-87350000D01*
X126714285Y-87278571D01*
X126428571Y-87278571D01*
X126285714Y-87350000D01*
X126928571Y-88207142D02*
X126785714Y-88278571D01*
X126428571Y-88278571D01*
X126285714Y-88207142D01*
X126214285Y-88064285D01*
X126214285Y-87921428D01*
X126285714Y-87778571D01*
X126428571Y-87707142D01*
X126785714Y-87707142D01*
X126928571Y-87635714D01*
X127642857Y-87278571D02*
X127642857Y-88778571D01*
X127642857Y-87350000D02*
X127785714Y-87278571D01*
X128071428Y-87278571D01*
X128214285Y-87350000D01*
X128285714Y-87421428D01*
X128357142Y-87564285D01*
X128357142Y-87992857D01*
X128285714Y-88135714D01*
X128214285Y-88207142D01*
X128071428Y-88278571D01*
X127785714Y-88278571D01*
X127642857Y-88207142D01*
X128785714Y-87278571D02*
X129357142Y-87278571D01*
X129000000Y-86778571D02*
X129000000Y-88064285D01*
X129071428Y-88207142D01*
X129214285Y-88278571D01*
X129357142Y-88278571D01*
X130428571Y-88207142D02*
X130285714Y-88278571D01*
X130000000Y-88278571D01*
X129857142Y-88207142D01*
X129785714Y-88064285D01*
X129785714Y-87492857D01*
X129857142Y-87350000D01*
X130000000Y-87278571D01*
X130285714Y-87278571D01*
X130428571Y-87350000D01*
X130500000Y-87492857D01*
X130500000Y-87635714D01*
X129785714Y-87778571D01*
X131142857Y-88278571D02*
X131142857Y-87278571D01*
X131142857Y-87564285D02*
X131214285Y-87421428D01*
X131285714Y-87350000D01*
X131428571Y-87278571D01*
X131571428Y-87278571D01*
X173314285Y-88728571D02*
X173600000Y-88728571D01*
X173742857Y-88800000D01*
X173885714Y-88942857D01*
X173957142Y-89228571D01*
X173957142Y-89728571D01*
X173885714Y-90014285D01*
X173742857Y-90157142D01*
X173600000Y-90228571D01*
X173314285Y-90228571D01*
X173171428Y-90157142D01*
X173028571Y-90014285D01*
X172957142Y-89728571D01*
X172957142Y-89228571D01*
X173028571Y-88942857D01*
X173171428Y-88800000D01*
X173314285Y-88728571D01*
X175242857Y-89228571D02*
X175242857Y-90228571D01*
X174600000Y-89228571D02*
X174600000Y-90014285D01*
X174671428Y-90157142D01*
X174814285Y-90228571D01*
X175028571Y-90228571D01*
X175171428Y-90157142D01*
X175242857Y-90085714D01*
X175742857Y-89228571D02*
X176314285Y-89228571D01*
X175957142Y-88728571D02*
X175957142Y-90014285D01*
X176028571Y-90157142D01*
X176171428Y-90228571D01*
X176314285Y-90228571D01*
X176814285Y-89228571D02*
X176814285Y-90728571D01*
X176814285Y-89300000D02*
X176957142Y-89228571D01*
X177242857Y-89228571D01*
X177385714Y-89300000D01*
X177457142Y-89371428D01*
X177528571Y-89514285D01*
X177528571Y-89942857D01*
X177457142Y-90085714D01*
X177385714Y-90157142D01*
X177242857Y-90228571D01*
X176957142Y-90228571D01*
X176814285Y-90157142D01*
X178814285Y-89228571D02*
X178814285Y-90228571D01*
X178171428Y-89228571D02*
X178171428Y-90014285D01*
X178242857Y-90157142D01*
X178385714Y-90228571D01*
X178600000Y-90228571D01*
X178742857Y-90157142D01*
X178814285Y-90085714D01*
X179314285Y-89228571D02*
X179885714Y-89228571D01*
X179528571Y-88728571D02*
X179528571Y-90014285D01*
X179600000Y-90157142D01*
X179742857Y-90228571D01*
X179885714Y-90228571D01*
D12*
X146360000Y-103100000D02*
G75*
G03*
X146360000Y-103100000I-1310000J0D01*
G01*
X146360000Y-103100000D02*
X146490000Y-103100000D01*
X148410000Y-101100000D02*
G75*
G03*
X148410000Y-101100000I-1310000J0D01*
G01*
X145790000Y-101100000D02*
X145660000Y-101100000D01*
X145460000Y-109800000D02*
G75*
G03*
X145460000Y-109800000I-1310000J0D01*
G01*
X145460000Y-109800000D02*
X145590000Y-109800000D01*
X147510000Y-107800000D02*
G75*
G03*
X147510000Y-107800000I-1310000J0D01*
G01*
X144890000Y-107800000D02*
X144760000Y-107800000D01*
X145460000Y-113800000D02*
G75*
G03*
X145460000Y-113800000I-1310000J0D01*
G01*
X145460000Y-113800000D02*
X145590000Y-113800000D01*
X147510000Y-111800000D02*
G75*
G03*
X147510000Y-111800000I-1310000J0D01*
G01*
X144890000Y-111800000D02*
X144760000Y-111800000D01*
X152710000Y-114400000D02*
G75*
G03*
X152710000Y-114400000I-1310000J0D01*
G01*
X151400000Y-113090000D02*
X151400000Y-112960000D01*
X150710000Y-112400000D02*
G75*
G03*
X150710000Y-112400000I-1310000J0D01*
G01*
X149400000Y-113710000D02*
X149400000Y-113840000D01*
X152590000Y-91550000D02*
G75*
G03*
X152590000Y-91550000I-4090000J0D01*
G01*
X144450000Y-91550000D02*
X152550000Y-91550000D01*
X144450000Y-91510000D02*
X152550000Y-91510000D01*
X144450000Y-91470000D02*
X152550000Y-91470000D01*
X144451000Y-91430000D02*
X152549000Y-91430000D01*
X144453000Y-91390000D02*
X152547000Y-91390000D01*
X144454000Y-91350000D02*
X152546000Y-91350000D01*
X144457000Y-91310000D02*
X152543000Y-91310000D01*
X144459000Y-91270000D02*
X152541000Y-91270000D01*
X144462000Y-91230000D02*
X152538000Y-91230000D01*
X144465000Y-91190000D02*
X152535000Y-91190000D01*
X144469000Y-91150000D02*
X152531000Y-91150000D01*
X144473000Y-91110000D02*
X152527000Y-91110000D01*
X144478000Y-91070000D02*
X152522000Y-91070000D01*
X144483000Y-91030000D02*
X152517000Y-91030000D01*
X144488000Y-90990000D02*
X152512000Y-90990000D01*
X144494000Y-90950000D02*
X152506000Y-90950000D01*
X144500000Y-90910000D02*
X152500000Y-90910000D01*
X144506000Y-90870000D02*
X152494000Y-90870000D01*
X144513000Y-90829000D02*
X152487000Y-90829000D01*
X144521000Y-90789000D02*
X152479000Y-90789000D01*
X144529000Y-90749000D02*
X147520000Y-90749000D01*
X149480000Y-90749000D02*
X152471000Y-90749000D01*
X144537000Y-90709000D02*
X147520000Y-90709000D01*
X149480000Y-90709000D02*
X152463000Y-90709000D01*
X144545000Y-90669000D02*
X147520000Y-90669000D01*
X149480000Y-90669000D02*
X152455000Y-90669000D01*
X144554000Y-90629000D02*
X147520000Y-90629000D01*
X149480000Y-90629000D02*
X152446000Y-90629000D01*
X144564000Y-90589000D02*
X147520000Y-90589000D01*
X149480000Y-90589000D02*
X152436000Y-90589000D01*
X144574000Y-90549000D02*
X147520000Y-90549000D01*
X149480000Y-90549000D02*
X152426000Y-90549000D01*
X144584000Y-90509000D02*
X147520000Y-90509000D01*
X149480000Y-90509000D02*
X152416000Y-90509000D01*
X144595000Y-90469000D02*
X147520000Y-90469000D01*
X149480000Y-90469000D02*
X152405000Y-90469000D01*
X144606000Y-90429000D02*
X147520000Y-90429000D01*
X149480000Y-90429000D02*
X152394000Y-90429000D01*
X144617000Y-90389000D02*
X147520000Y-90389000D01*
X149480000Y-90389000D02*
X152383000Y-90389000D01*
X144630000Y-90349000D02*
X147520000Y-90349000D01*
X149480000Y-90349000D02*
X152370000Y-90349000D01*
X144642000Y-90309000D02*
X147520000Y-90309000D01*
X149480000Y-90309000D02*
X152358000Y-90309000D01*
X144655000Y-90269000D02*
X147520000Y-90269000D01*
X149480000Y-90269000D02*
X152345000Y-90269000D01*
X144668000Y-90229000D02*
X147520000Y-90229000D01*
X149480000Y-90229000D02*
X152332000Y-90229000D01*
X144682000Y-90189000D02*
X147520000Y-90189000D01*
X149480000Y-90189000D02*
X152318000Y-90189000D01*
X144697000Y-90149000D02*
X147520000Y-90149000D01*
X149480000Y-90149000D02*
X152303000Y-90149000D01*
X144711000Y-90109000D02*
X147520000Y-90109000D01*
X149480000Y-90109000D02*
X152289000Y-90109000D01*
X144727000Y-90069000D02*
X147520000Y-90069000D01*
X149480000Y-90069000D02*
X152273000Y-90069000D01*
X144742000Y-90029000D02*
X147520000Y-90029000D01*
X149480000Y-90029000D02*
X152258000Y-90029000D01*
X144759000Y-89989000D02*
X147520000Y-89989000D01*
X149480000Y-89989000D02*
X152241000Y-89989000D01*
X144775000Y-89949000D02*
X147520000Y-89949000D01*
X149480000Y-89949000D02*
X152225000Y-89949000D01*
X144793000Y-89909000D02*
X147520000Y-89909000D01*
X149480000Y-89909000D02*
X152207000Y-89909000D01*
X144810000Y-89869000D02*
X147520000Y-89869000D01*
X149480000Y-89869000D02*
X152190000Y-89869000D01*
X144829000Y-89829000D02*
X147520000Y-89829000D01*
X149480000Y-89829000D02*
X152171000Y-89829000D01*
X144848000Y-89789000D02*
X147520000Y-89789000D01*
X149480000Y-89789000D02*
X152152000Y-89789000D01*
X144867000Y-89749000D02*
X147520000Y-89749000D01*
X149480000Y-89749000D02*
X152133000Y-89749000D01*
X144887000Y-89709000D02*
X147520000Y-89709000D01*
X149480000Y-89709000D02*
X152113000Y-89709000D01*
X144907000Y-89669000D02*
X147520000Y-89669000D01*
X149480000Y-89669000D02*
X152093000Y-89669000D01*
X144928000Y-89629000D02*
X147520000Y-89629000D01*
X149480000Y-89629000D02*
X152072000Y-89629000D01*
X144950000Y-89589000D02*
X147520000Y-89589000D01*
X149480000Y-89589000D02*
X152050000Y-89589000D01*
X144972000Y-89549000D02*
X147520000Y-89549000D01*
X149480000Y-89549000D02*
X152028000Y-89549000D01*
X144995000Y-89509000D02*
X147520000Y-89509000D01*
X149480000Y-89509000D02*
X152005000Y-89509000D01*
X145018000Y-89469000D02*
X147520000Y-89469000D01*
X149480000Y-89469000D02*
X151982000Y-89469000D01*
X145042000Y-89429000D02*
X147520000Y-89429000D01*
X149480000Y-89429000D02*
X151958000Y-89429000D01*
X145066000Y-89389000D02*
X147520000Y-89389000D01*
X149480000Y-89389000D02*
X151934000Y-89389000D01*
X145092000Y-89349000D02*
X147520000Y-89349000D01*
X149480000Y-89349000D02*
X151908000Y-89349000D01*
X145117000Y-89309000D02*
X147520000Y-89309000D01*
X149480000Y-89309000D02*
X151883000Y-89309000D01*
X145144000Y-89269000D02*
X147520000Y-89269000D01*
X149480000Y-89269000D02*
X151856000Y-89269000D01*
X145171000Y-89229000D02*
X147520000Y-89229000D01*
X149480000Y-89229000D02*
X151829000Y-89229000D01*
X145199000Y-89189000D02*
X147520000Y-89189000D01*
X149480000Y-89189000D02*
X151801000Y-89189000D01*
X145228000Y-89149000D02*
X147520000Y-89149000D01*
X149480000Y-89149000D02*
X151772000Y-89149000D01*
X145257000Y-89109000D02*
X147520000Y-89109000D01*
X149480000Y-89109000D02*
X151743000Y-89109000D01*
X145287000Y-89069000D02*
X147520000Y-89069000D01*
X149480000Y-89069000D02*
X151713000Y-89069000D01*
X145318000Y-89029000D02*
X147520000Y-89029000D01*
X149480000Y-89029000D02*
X151682000Y-89029000D01*
X145350000Y-88989000D02*
X147520000Y-88989000D01*
X149480000Y-88989000D02*
X151650000Y-88989000D01*
X145382000Y-88949000D02*
X147520000Y-88949000D01*
X149480000Y-88949000D02*
X151618000Y-88949000D01*
X145416000Y-88909000D02*
X147520000Y-88909000D01*
X149480000Y-88909000D02*
X151584000Y-88909000D01*
X145450000Y-88869000D02*
X147520000Y-88869000D01*
X149480000Y-88869000D02*
X151550000Y-88869000D01*
X145485000Y-88829000D02*
X147520000Y-88829000D01*
X149480000Y-88829000D02*
X151515000Y-88829000D01*
X145521000Y-88789000D02*
X151479000Y-88789000D01*
X145558000Y-88749000D02*
X151442000Y-88749000D01*
X145596000Y-88709000D02*
X151404000Y-88709000D01*
X145635000Y-88669000D02*
X151365000Y-88669000D01*
X145676000Y-88629000D02*
X151324000Y-88629000D01*
X145717000Y-88589000D02*
X151283000Y-88589000D01*
X145760000Y-88549000D02*
X151240000Y-88549000D01*
X145803000Y-88509000D02*
X151197000Y-88509000D01*
X145848000Y-88469000D02*
X151152000Y-88469000D01*
X145895000Y-88429000D02*
X151105000Y-88429000D01*
X145943000Y-88389000D02*
X151057000Y-88389000D01*
X145992000Y-88349000D02*
X151008000Y-88349000D01*
X146043000Y-88309000D02*
X150957000Y-88309000D01*
X146096000Y-88269000D02*
X150904000Y-88269000D01*
X146151000Y-88229000D02*
X150849000Y-88229000D01*
X146207000Y-88189000D02*
X150793000Y-88189000D01*
X146266000Y-88149000D02*
X150734000Y-88149000D01*
X146327000Y-88109000D02*
X150673000Y-88109000D01*
X146391000Y-88069000D02*
X150609000Y-88069000D01*
X146457000Y-88029000D02*
X150543000Y-88029000D01*
X146526000Y-87989000D02*
X150474000Y-87989000D01*
X146598000Y-87949000D02*
X150402000Y-87949000D01*
X146674000Y-87909000D02*
X150326000Y-87909000D01*
X146755000Y-87869000D02*
X150245000Y-87869000D01*
X146840000Y-87829000D02*
X150160000Y-87829000D01*
X146930000Y-87789000D02*
X150070000Y-87789000D01*
X147027000Y-87749000D02*
X149973000Y-87749000D01*
X147131000Y-87709000D02*
X149869000Y-87709000D01*
X147246000Y-87669000D02*
X149754000Y-87669000D01*
X147373000Y-87629000D02*
X149627000Y-87629000D01*
X147517000Y-87589000D02*
X149483000Y-87589000D01*
X147686000Y-87549000D02*
X149314000Y-87549000D01*
X147902000Y-87509000D02*
X149098000Y-87509000D01*
X148254000Y-87469000D02*
X148746000Y-87469000D01*
X148500000Y-95500000D02*
X148500000Y-94300000D01*
X147850000Y-94900000D02*
X149150000Y-94900000D01*
D13*
X158525600Y-91671200D02*
X157829850Y-91671200D01*
X155274400Y-91671200D02*
X155274400Y-92039861D01*
X155274400Y-95328800D02*
X155462150Y-95328800D01*
X158525600Y-95328800D02*
X158525600Y-94960139D01*
X158525600Y-92039861D02*
X158525600Y-91671200D01*
X155274400Y-94960139D02*
X155274400Y-95328800D01*
X155462150Y-91671200D02*
X155274400Y-91671200D01*
X157829850Y-95328800D02*
X158525600Y-95328800D01*
X158532401Y-96203201D02*
X157836651Y-96203201D01*
X155281201Y-96203201D02*
X155281201Y-96571862D01*
X155281201Y-99860801D02*
X155468951Y-99860801D01*
X158532401Y-99860801D02*
X158532401Y-99492140D01*
X158532401Y-96571862D02*
X158532401Y-96203201D01*
X155281201Y-99492140D02*
X155281201Y-99860801D01*
X155468951Y-96203201D02*
X155281201Y-96203201D01*
X157836651Y-99860801D02*
X158532401Y-99860801D01*
X159974400Y-100528800D02*
X160670150Y-100528800D01*
X163225600Y-100528800D02*
X163225600Y-100160139D01*
X163225600Y-96871200D02*
X163037850Y-96871200D01*
X159974400Y-96871200D02*
X159974400Y-97239861D01*
X159974400Y-100160139D02*
X159974400Y-100528800D01*
X163225600Y-97239861D02*
X163225600Y-96871200D01*
X163037850Y-100528800D02*
X163225600Y-100528800D01*
X160670150Y-96871200D02*
X159974400Y-96871200D01*
X159974400Y-95928800D02*
X160670150Y-95928800D01*
X163225600Y-95928800D02*
X163225600Y-95560139D01*
X163225600Y-92271200D02*
X163037850Y-92271200D01*
X159974400Y-92271200D02*
X159974400Y-92639861D01*
X159974400Y-95560139D02*
X159974400Y-95928800D01*
X163225600Y-92639861D02*
X163225600Y-92271200D01*
X163037850Y-95928800D02*
X163225600Y-95928800D01*
X160670150Y-92271200D02*
X159974400Y-92271200D01*
D12*
X131140000Y-101090000D02*
X124940000Y-101090000D01*
X124940000Y-101090000D02*
X124940000Y-101280000D01*
X138550000Y-110590000D02*
X139060000Y-110590000D01*
X139060000Y-110590000D02*
X139060000Y-112080000D01*
X139060000Y-112080000D02*
X131140000Y-112080000D01*
X131140000Y-112080000D02*
X131140000Y-111030000D01*
X134560000Y-110590000D02*
X135350000Y-110590000D01*
X131140000Y-101090000D02*
X131140000Y-100040000D01*
X131140000Y-100040000D02*
X139060000Y-100040000D01*
X139060000Y-100040000D02*
X139060000Y-101530000D01*
X139060000Y-101530000D02*
X138560000Y-101530000D01*
X135250000Y-101530000D02*
X134560000Y-101530000D01*
X124940000Y-110840000D02*
X124940000Y-111030000D01*
X124940000Y-111030000D02*
X131140000Y-111030000D01*
X134560000Y-101520000D02*
X134560000Y-103360000D01*
X134560000Y-108760000D02*
X134560000Y-110600000D01*
X124940000Y-101280000D02*
X123440000Y-101280000D01*
X123440000Y-101280000D02*
X123440000Y-102920000D01*
X123440000Y-102920000D02*
X124940000Y-102920000D01*
X134560000Y-103360000D02*
X135250000Y-103360000D01*
X137060000Y-103710000D02*
X137060000Y-104450000D01*
X135950000Y-104800000D02*
X134560000Y-104800000D01*
X124940000Y-105240000D02*
X123440000Y-105240000D01*
X123440000Y-105240000D02*
X123440000Y-106880000D01*
X123440000Y-106880000D02*
X124940000Y-106880000D01*
X134560000Y-107320000D02*
X135950000Y-107320000D01*
X137060000Y-107670000D02*
X137060000Y-108410000D01*
X135950000Y-108760000D02*
X134560000Y-108760000D01*
X134560000Y-104800000D02*
X134560000Y-107320000D01*
X124940000Y-102920000D02*
X124940000Y-105240000D01*
X124940000Y-109200000D02*
X123440000Y-109200000D01*
X123440000Y-109200000D02*
X123440000Y-110840000D01*
X123440000Y-110840000D02*
X124940000Y-110840000D01*
X124940000Y-106880000D02*
X124940000Y-109200000D01*
X138560000Y-102100000D02*
X138560000Y-100490000D01*
X138560000Y-100490000D02*
X136950000Y-100490000D01*
D14*
X180200000Y-92700000D02*
X180200000Y-101700000D01*
X180200000Y-101700000D02*
X165800000Y-101700000D01*
X165800000Y-92700000D02*
X166950000Y-92700000D01*
X165800000Y-101700000D02*
X165800000Y-99850000D01*
X172050000Y-92700000D02*
X180200000Y-92700000D01*
X165800000Y-94650000D02*
X165800000Y-92700000D01*
D15*
X164700000Y-97200000D02*
G75*
G03*
X164700000Y-97200000I-200000J0D01*
G01*
D12*
X139250000Y-95350000D02*
X139250000Y-89650000D01*
X143550000Y-95350000D02*
X143550000Y-89650000D01*
X139250000Y-95350000D02*
X143550000Y-95350000D01*
X143350000Y-100550000D02*
X143350000Y-106250000D01*
X139050000Y-100550000D02*
X139050000Y-106250000D01*
X143350000Y-100550000D02*
X139050000Y-100550000D01*
X158150000Y-102700000D02*
X158850000Y-102700000D01*
X158850000Y-103900000D02*
X158150000Y-103900000D01*
X158850000Y-102600000D02*
X158150000Y-102600000D01*
X158150000Y-101400000D02*
X158850000Y-101400000D01*
X145200000Y-106350000D02*
X146200000Y-106350000D01*
X146200000Y-104650000D02*
X145200000Y-104650000D01*
X154200000Y-91050000D02*
X154200000Y-91750000D01*
X153000000Y-91750000D02*
X153000000Y-91050000D01*
X154550000Y-101300000D02*
X153850000Y-101300000D01*
X153850000Y-100100000D02*
X154550000Y-100100000D01*
X160350000Y-106820000D02*
X158350000Y-106820000D01*
X158350000Y-109780000D02*
X160350000Y-109780000D01*
X158150000Y-104000000D02*
X158850000Y-104000000D01*
X158850000Y-105200000D02*
X158150000Y-105200000D01*
X158850000Y-106500000D02*
X158150000Y-106500000D01*
X158150000Y-105300000D02*
X158850000Y-105300000D01*
X162520000Y-103200000D02*
X162520000Y-105200000D01*
X165480000Y-105200000D02*
X165480000Y-103200000D01*
X170900000Y-102250000D02*
X170900000Y-112350000D01*
X170940000Y-102250000D02*
X170940000Y-112350000D01*
X170980000Y-102250000D02*
X170980000Y-112350000D01*
X171020000Y-102251000D02*
X171020000Y-112349000D01*
X171060000Y-102252000D02*
X171060000Y-112348000D01*
X171100000Y-102253000D02*
X171100000Y-112347000D01*
X171140000Y-102255000D02*
X171140000Y-112345000D01*
X171180000Y-102257000D02*
X171180000Y-112343000D01*
X171220000Y-102260000D02*
X171220000Y-112340000D01*
X171260000Y-102262000D02*
X171260000Y-112338000D01*
X171300000Y-102265000D02*
X171300000Y-112335000D01*
X171340000Y-102269000D02*
X171340000Y-112331000D01*
X171380000Y-102272000D02*
X171380000Y-112328000D01*
X171420000Y-102276000D02*
X171420000Y-112324000D01*
X171460000Y-102280000D02*
X171460000Y-112320000D01*
X171500000Y-102285000D02*
X171500000Y-112315000D01*
X171540000Y-102290000D02*
X171540000Y-112310000D01*
X171580000Y-102295000D02*
X171580000Y-112305000D01*
X171621000Y-102301000D02*
X171621000Y-112299000D01*
X171661000Y-102307000D02*
X171661000Y-112293000D01*
X171701000Y-102313000D02*
X171701000Y-112287000D01*
X171741000Y-102319000D02*
X171741000Y-112281000D01*
X171781000Y-102326000D02*
X171781000Y-112274000D01*
X171821000Y-102333000D02*
X171821000Y-112267000D01*
X171861000Y-102341000D02*
X171861000Y-112259000D01*
X171901000Y-102349000D02*
X171901000Y-112251000D01*
X171941000Y-102357000D02*
X171941000Y-112243000D01*
X171981000Y-102365000D02*
X171981000Y-112235000D01*
X172021000Y-102374000D02*
X172021000Y-112226000D01*
X172061000Y-102383000D02*
X172061000Y-112217000D01*
X172101000Y-102393000D02*
X172101000Y-112207000D01*
X172141000Y-102403000D02*
X172141000Y-112197000D01*
X172181000Y-102413000D02*
X172181000Y-112187000D01*
X172221000Y-102424000D02*
X172221000Y-106119000D01*
X172221000Y-108481000D02*
X172221000Y-112176000D01*
X172261000Y-102435000D02*
X172261000Y-106119000D01*
X172261000Y-108481000D02*
X172261000Y-112165000D01*
X172301000Y-102446000D02*
X172301000Y-106119000D01*
X172301000Y-108481000D02*
X172301000Y-112154000D01*
X172341000Y-102457000D02*
X172341000Y-106119000D01*
X172341000Y-108481000D02*
X172341000Y-112143000D01*
X172381000Y-102469000D02*
X172381000Y-106119000D01*
X172381000Y-108481000D02*
X172381000Y-112131000D01*
X172421000Y-102482000D02*
X172421000Y-106119000D01*
X172421000Y-108481000D02*
X172421000Y-112118000D01*
X172461000Y-102494000D02*
X172461000Y-106119000D01*
X172461000Y-108481000D02*
X172461000Y-112106000D01*
X172501000Y-102508000D02*
X172501000Y-106119000D01*
X172501000Y-108481000D02*
X172501000Y-112092000D01*
X172541000Y-102521000D02*
X172541000Y-106119000D01*
X172541000Y-108481000D02*
X172541000Y-112079000D01*
X172581000Y-102535000D02*
X172581000Y-106119000D01*
X172581000Y-108481000D02*
X172581000Y-112065000D01*
X172621000Y-102549000D02*
X172621000Y-106119000D01*
X172621000Y-108481000D02*
X172621000Y-112051000D01*
X172661000Y-102563000D02*
X172661000Y-106119000D01*
X172661000Y-108481000D02*
X172661000Y-112037000D01*
X172701000Y-102578000D02*
X172701000Y-106119000D01*
X172701000Y-108481000D02*
X172701000Y-112022000D01*
X172741000Y-102594000D02*
X172741000Y-106119000D01*
X172741000Y-108481000D02*
X172741000Y-112006000D01*
X172781000Y-102609000D02*
X172781000Y-106119000D01*
X172781000Y-108481000D02*
X172781000Y-111991000D01*
X172821000Y-102626000D02*
X172821000Y-106119000D01*
X172821000Y-108481000D02*
X172821000Y-111974000D01*
X172861000Y-102642000D02*
X172861000Y-106119000D01*
X172861000Y-108481000D02*
X172861000Y-111958000D01*
X172901000Y-102659000D02*
X172901000Y-106119000D01*
X172901000Y-108481000D02*
X172901000Y-111941000D01*
X172941000Y-102676000D02*
X172941000Y-106119000D01*
X172941000Y-108481000D02*
X172941000Y-111924000D01*
X172981000Y-102694000D02*
X172981000Y-106119000D01*
X172981000Y-108481000D02*
X172981000Y-111906000D01*
X173021000Y-102712000D02*
X173021000Y-106119000D01*
X173021000Y-108481000D02*
X173021000Y-111888000D01*
X173061000Y-102731000D02*
X173061000Y-106119000D01*
X173061000Y-108481000D02*
X173061000Y-111869000D01*
X173101000Y-102750000D02*
X173101000Y-106119000D01*
X173101000Y-108481000D02*
X173101000Y-111850000D01*
X173141000Y-102769000D02*
X173141000Y-106119000D01*
X173141000Y-108481000D02*
X173141000Y-111831000D01*
X173181000Y-102789000D02*
X173181000Y-106119000D01*
X173181000Y-108481000D02*
X173181000Y-111811000D01*
X173221000Y-102809000D02*
X173221000Y-106119000D01*
X173221000Y-108481000D02*
X173221000Y-111791000D01*
X173261000Y-102830000D02*
X173261000Y-106119000D01*
X173261000Y-108481000D02*
X173261000Y-111770000D01*
X173301000Y-102851000D02*
X173301000Y-106119000D01*
X173301000Y-108481000D02*
X173301000Y-111749000D01*
X173341000Y-102872000D02*
X173341000Y-106119000D01*
X173341000Y-108481000D02*
X173341000Y-111728000D01*
X173381000Y-102895000D02*
X173381000Y-106119000D01*
X173381000Y-108481000D02*
X173381000Y-111705000D01*
X173421000Y-102917000D02*
X173421000Y-106119000D01*
X173421000Y-108481000D02*
X173421000Y-111683000D01*
X173461000Y-102940000D02*
X173461000Y-106119000D01*
X173461000Y-108481000D02*
X173461000Y-111660000D01*
X173501000Y-102964000D02*
X173501000Y-106119000D01*
X173501000Y-108481000D02*
X173501000Y-111636000D01*
X173541000Y-102988000D02*
X173541000Y-106119000D01*
X173541000Y-108481000D02*
X173541000Y-111612000D01*
X173581000Y-103012000D02*
X173581000Y-106119000D01*
X173581000Y-108481000D02*
X173581000Y-111588000D01*
X173621000Y-103037000D02*
X173621000Y-106119000D01*
X173621000Y-108481000D02*
X173621000Y-111563000D01*
X173661000Y-103063000D02*
X173661000Y-106119000D01*
X173661000Y-108481000D02*
X173661000Y-111537000D01*
X173701000Y-103089000D02*
X173701000Y-106119000D01*
X173701000Y-108481000D02*
X173701000Y-111511000D01*
X173741000Y-103115000D02*
X173741000Y-106119000D01*
X173741000Y-108481000D02*
X173741000Y-111485000D01*
X173781000Y-103143000D02*
X173781000Y-106119000D01*
X173781000Y-108481000D02*
X173781000Y-111457000D01*
X173821000Y-103170000D02*
X173821000Y-106119000D01*
X173821000Y-108481000D02*
X173821000Y-111430000D01*
X173861000Y-103199000D02*
X173861000Y-106119000D01*
X173861000Y-108481000D02*
X173861000Y-111401000D01*
X173901000Y-103228000D02*
X173901000Y-106119000D01*
X173901000Y-108481000D02*
X173901000Y-111372000D01*
X173941000Y-103257000D02*
X173941000Y-106119000D01*
X173941000Y-108481000D02*
X173941000Y-111343000D01*
X173981000Y-103287000D02*
X173981000Y-106119000D01*
X173981000Y-108481000D02*
X173981000Y-111313000D01*
X174021000Y-103318000D02*
X174021000Y-106119000D01*
X174021000Y-108481000D02*
X174021000Y-111282000D01*
X174061000Y-103349000D02*
X174061000Y-106119000D01*
X174061000Y-108481000D02*
X174061000Y-111251000D01*
X174101000Y-103381000D02*
X174101000Y-106119000D01*
X174101000Y-108481000D02*
X174101000Y-111219000D01*
X174141000Y-103414000D02*
X174141000Y-106119000D01*
X174141000Y-108481000D02*
X174141000Y-111186000D01*
X174181000Y-103447000D02*
X174181000Y-106119000D01*
X174181000Y-108481000D02*
X174181000Y-111153000D01*
X174221000Y-103481000D02*
X174221000Y-106119000D01*
X174221000Y-108481000D02*
X174221000Y-111119000D01*
X174261000Y-103516000D02*
X174261000Y-106119000D01*
X174261000Y-108481000D02*
X174261000Y-111084000D01*
X174301000Y-103552000D02*
X174301000Y-106119000D01*
X174301000Y-108481000D02*
X174301000Y-111048000D01*
X174341000Y-103588000D02*
X174341000Y-106119000D01*
X174341000Y-108481000D02*
X174341000Y-111012000D01*
X174381000Y-103625000D02*
X174381000Y-106119000D01*
X174381000Y-108481000D02*
X174381000Y-110975000D01*
X174421000Y-103663000D02*
X174421000Y-106119000D01*
X174421000Y-108481000D02*
X174421000Y-110937000D01*
X174461000Y-103702000D02*
X174461000Y-106119000D01*
X174461000Y-108481000D02*
X174461000Y-110898000D01*
X174501000Y-103741000D02*
X174501000Y-106119000D01*
X174501000Y-108481000D02*
X174501000Y-110859000D01*
X174541000Y-103782000D02*
X174541000Y-106119000D01*
X174541000Y-108481000D02*
X174541000Y-110818000D01*
X174581000Y-103823000D02*
X174581000Y-110777000D01*
X174621000Y-103865000D02*
X174621000Y-110735000D01*
X174661000Y-103909000D02*
X174661000Y-110691000D01*
X174701000Y-103953000D02*
X174701000Y-110647000D01*
X174741000Y-103998000D02*
X174741000Y-110602000D01*
X174781000Y-104045000D02*
X174781000Y-110555000D01*
X174821000Y-104093000D02*
X174821000Y-110507000D01*
X174861000Y-104142000D02*
X174861000Y-110458000D01*
X174901000Y-104192000D02*
X174901000Y-110408000D01*
X174941000Y-104243000D02*
X174941000Y-110357000D01*
X174981000Y-104296000D02*
X174981000Y-110304000D01*
X175021000Y-104351000D02*
X175021000Y-110249000D01*
X175061000Y-104406000D02*
X175061000Y-110194000D01*
X175101000Y-104464000D02*
X175101000Y-110136000D01*
X175141000Y-104523000D02*
X175141000Y-110077000D01*
X175181000Y-104585000D02*
X175181000Y-110015000D01*
X175221000Y-104648000D02*
X175221000Y-109952000D01*
X175261000Y-104713000D02*
X175261000Y-109887000D01*
X175301000Y-104781000D02*
X175301000Y-109819000D01*
X175341000Y-104851000D02*
X175341000Y-109749000D01*
X175381000Y-104923000D02*
X175381000Y-109677000D01*
X175421000Y-104999000D02*
X175421000Y-109601000D01*
X175461000Y-105078000D02*
X175461000Y-109522000D01*
X175501000Y-105160000D02*
X175501000Y-109440000D01*
X175541000Y-105247000D02*
X175541000Y-109353000D01*
X175581000Y-105338000D02*
X175581000Y-109262000D01*
X175621000Y-105434000D02*
X175621000Y-109166000D01*
X175661000Y-105537000D02*
X175661000Y-109063000D01*
X175701000Y-105646000D02*
X175701000Y-108954000D01*
X175741000Y-105764000D02*
X175741000Y-108836000D01*
X175781000Y-105893000D02*
X175781000Y-108707000D01*
X175821000Y-106035000D02*
X175821000Y-108565000D01*
X175861000Y-106196000D02*
X175861000Y-108404000D01*
X175901000Y-106387000D02*
X175901000Y-108213000D01*
X175941000Y-106628000D02*
X175941000Y-107972000D01*
X175981000Y-107021000D02*
X175981000Y-107579000D01*
X165700000Y-107300000D02*
X167200000Y-107300000D01*
X166450000Y-106550000D02*
X166450000Y-108050000D01*
X175798437Y-108683264D02*
G75*
G03*
X175799357Y-105920000I-4898437J1383264D01*
G01*
X175798437Y-108683264D02*
G75*
G02*
X166000643Y-108680000I-4898437J1383264D01*
G01*
X175798437Y-105916736D02*
G75*
G03*
X166000643Y-105920000I-4898437J-1383264D01*
G01*
X157200000Y-109930000D02*
X157200000Y-111070000D01*
X157200000Y-111070000D02*
X159300000Y-111070000D01*
X157200000Y-109930000D02*
X159300000Y-109930000D01*
D10*
X150150001Y-101600001D02*
X150150001Y-102075001D01*
X154300001Y-101600001D02*
X154300001Y-102157501D01*
X154300001Y-110550001D02*
X154300001Y-109992501D01*
X150150001Y-110550001D02*
X150150001Y-109992501D01*
X150150001Y-101600001D02*
X154300001Y-101600001D01*
X150150001Y-110550001D02*
X154300001Y-110550001D01*
X150150001Y-102075001D02*
X149025001Y-102075001D01*
D15*
X139300000Y-93500000D02*
G75*
G03*
X139300000Y-93500000I-200000J0D01*
G01*
D14*
X137800000Y-96050000D02*
X137800000Y-98000000D01*
X131550000Y-98000000D02*
X123400000Y-98000000D01*
X137800000Y-89000000D02*
X137800000Y-90850000D01*
X137800000Y-98000000D02*
X136650000Y-98000000D01*
X123400000Y-89000000D02*
X137800000Y-89000000D01*
X123400000Y-98000000D02*
X123400000Y-89000000D01*
D10*
X146233333Y-104752380D02*
X145900000Y-104276190D01*
X145661904Y-104752380D02*
X145661904Y-103752380D01*
X146042857Y-103752380D01*
X146138095Y-103800000D01*
X146185714Y-103847619D01*
X146233333Y-103942857D01*
X146233333Y-104085714D01*
X146185714Y-104180952D01*
X146138095Y-104228571D01*
X146042857Y-104276190D01*
X145661904Y-104276190D01*
X146804761Y-104180952D02*
X146709523Y-104133333D01*
X146661904Y-104085714D01*
X146614285Y-103990476D01*
X146614285Y-103942857D01*
X146661904Y-103847619D01*
X146709523Y-103800000D01*
X146804761Y-103752380D01*
X146995238Y-103752380D01*
X147090476Y-103800000D01*
X147138095Y-103847619D01*
X147185714Y-103942857D01*
X147185714Y-103990476D01*
X147138095Y-104085714D01*
X147090476Y-104133333D01*
X146995238Y-104180952D01*
X146804761Y-104180952D01*
X146709523Y-104228571D01*
X146661904Y-104276190D01*
X146614285Y-104371428D01*
X146614285Y-104561904D01*
X146661904Y-104657142D01*
X146709523Y-104704761D01*
X146804761Y-104752380D01*
X146995238Y-104752380D01*
X147090476Y-104704761D01*
X147138095Y-104657142D01*
X147185714Y-104561904D01*
X147185714Y-104371428D01*
X147138095Y-104276190D01*
X147090476Y-104228571D01*
X146995238Y-104180952D01*
X149552380Y-101266666D02*
X149076190Y-101600000D01*
X149552380Y-101838095D02*
X148552380Y-101838095D01*
X148552380Y-101457142D01*
X148600000Y-101361904D01*
X148647619Y-101314285D01*
X148742857Y-101266666D01*
X148885714Y-101266666D01*
X148980952Y-101314285D01*
X149028571Y-101361904D01*
X149076190Y-101457142D01*
X149076190Y-101838095D01*
X148552380Y-100933333D02*
X148552380Y-100266666D01*
X149552380Y-100695238D01*
X141733333Y-110252380D02*
X141400000Y-109776190D01*
X141161904Y-110252380D02*
X141161904Y-109252380D01*
X141542857Y-109252380D01*
X141638095Y-109300000D01*
X141685714Y-109347619D01*
X141733333Y-109442857D01*
X141733333Y-109585714D01*
X141685714Y-109680952D01*
X141638095Y-109728571D01*
X141542857Y-109776190D01*
X141161904Y-109776190D01*
X142590476Y-109252380D02*
X142400000Y-109252380D01*
X142304761Y-109300000D01*
X142257142Y-109347619D01*
X142161904Y-109490476D01*
X142114285Y-109680952D01*
X142114285Y-110061904D01*
X142161904Y-110157142D01*
X142209523Y-110204761D01*
X142304761Y-110252380D01*
X142495238Y-110252380D01*
X142590476Y-110204761D01*
X142638095Y-110157142D01*
X142685714Y-110061904D01*
X142685714Y-109823809D01*
X142638095Y-109728571D01*
X142590476Y-109680952D01*
X142495238Y-109633333D01*
X142304761Y-109633333D01*
X142209523Y-109680952D01*
X142161904Y-109728571D01*
X142114285Y-109823809D01*
X148652380Y-107966666D02*
X148176190Y-108300000D01*
X148652380Y-108538095D02*
X147652380Y-108538095D01*
X147652380Y-108157142D01*
X147700000Y-108061904D01*
X147747619Y-108014285D01*
X147842857Y-107966666D01*
X147985714Y-107966666D01*
X148080952Y-108014285D01*
X148128571Y-108061904D01*
X148176190Y-108157142D01*
X148176190Y-108538095D01*
X147652380Y-107061904D02*
X147652380Y-107538095D01*
X148128571Y-107585714D01*
X148080952Y-107538095D01*
X148033333Y-107442857D01*
X148033333Y-107204761D01*
X148080952Y-107109523D01*
X148128571Y-107061904D01*
X148223809Y-107014285D01*
X148461904Y-107014285D01*
X148557142Y-107061904D01*
X148604761Y-107109523D01*
X148652380Y-107204761D01*
X148652380Y-107442857D01*
X148604761Y-107538095D01*
X148557142Y-107585714D01*
X141633333Y-114252380D02*
X141300000Y-113776190D01*
X141061904Y-114252380D02*
X141061904Y-113252380D01*
X141442857Y-113252380D01*
X141538095Y-113300000D01*
X141585714Y-113347619D01*
X141633333Y-113442857D01*
X141633333Y-113585714D01*
X141585714Y-113680952D01*
X141538095Y-113728571D01*
X141442857Y-113776190D01*
X141061904Y-113776190D01*
X142490476Y-113585714D02*
X142490476Y-114252380D01*
X142252380Y-113204761D02*
X142014285Y-113919047D01*
X142633333Y-113919047D01*
X141733333Y-112252380D02*
X141400000Y-111776190D01*
X141161904Y-112252380D02*
X141161904Y-111252380D01*
X141542857Y-111252380D01*
X141638095Y-111300000D01*
X141685714Y-111347619D01*
X141733333Y-111442857D01*
X141733333Y-111585714D01*
X141685714Y-111680952D01*
X141638095Y-111728571D01*
X141542857Y-111776190D01*
X141161904Y-111776190D01*
X142066666Y-111252380D02*
X142685714Y-111252380D01*
X142352380Y-111633333D01*
X142495238Y-111633333D01*
X142590476Y-111680952D01*
X142638095Y-111728571D01*
X142685714Y-111823809D01*
X142685714Y-112061904D01*
X142638095Y-112157142D01*
X142590476Y-112204761D01*
X142495238Y-112252380D01*
X142209523Y-112252380D01*
X142114285Y-112204761D01*
X142066666Y-112157142D01*
X153352380Y-112666666D02*
X152876190Y-113000000D01*
X153352380Y-113238095D02*
X152352380Y-113238095D01*
X152352380Y-112857142D01*
X152400000Y-112761904D01*
X152447619Y-112714285D01*
X152542857Y-112666666D01*
X152685714Y-112666666D01*
X152780952Y-112714285D01*
X152828571Y-112761904D01*
X152876190Y-112857142D01*
X152876190Y-113238095D01*
X152447619Y-112285714D02*
X152400000Y-112238095D01*
X152352380Y-112142857D01*
X152352380Y-111904761D01*
X152400000Y-111809523D01*
X152447619Y-111761904D01*
X152542857Y-111714285D01*
X152638095Y-111714285D01*
X152780952Y-111761904D01*
X153352380Y-112333333D01*
X153352380Y-111714285D01*
X148452380Y-114466666D02*
X147976190Y-114800000D01*
X148452380Y-115038095D02*
X147452380Y-115038095D01*
X147452380Y-114657142D01*
X147500000Y-114561904D01*
X147547619Y-114514285D01*
X147642857Y-114466666D01*
X147785714Y-114466666D01*
X147880952Y-114514285D01*
X147928571Y-114561904D01*
X147976190Y-114657142D01*
X147976190Y-115038095D01*
X148452380Y-113514285D02*
X148452380Y-114085714D01*
X148452380Y-113800000D02*
X147452380Y-113800000D01*
X147595238Y-113895238D01*
X147690476Y-113990476D01*
X147738095Y-114085714D01*
X144633333Y-88157142D02*
X144585714Y-88204761D01*
X144442857Y-88252380D01*
X144347619Y-88252380D01*
X144204761Y-88204761D01*
X144109523Y-88109523D01*
X144061904Y-88014285D01*
X144014285Y-87823809D01*
X144014285Y-87680952D01*
X144061904Y-87490476D01*
X144109523Y-87395238D01*
X144204761Y-87300000D01*
X144347619Y-87252380D01*
X144442857Y-87252380D01*
X144585714Y-87300000D01*
X144633333Y-87347619D01*
X145585714Y-88252380D02*
X145014285Y-88252380D01*
X145300000Y-88252380D02*
X145300000Y-87252380D01*
X145204761Y-87395238D01*
X145109523Y-87490476D01*
X145014285Y-87538095D01*
X155938095Y-90352380D02*
X155938095Y-91161904D01*
X155985714Y-91257142D01*
X156033333Y-91304761D01*
X156128571Y-91352380D01*
X156319047Y-91352380D01*
X156414285Y-91304761D01*
X156461904Y-91257142D01*
X156509523Y-91161904D01*
X156509523Y-90352380D01*
X156938095Y-90447619D02*
X156985714Y-90400000D01*
X157080952Y-90352380D01*
X157319047Y-90352380D01*
X157414285Y-90400000D01*
X157461904Y-90447619D01*
X157509523Y-90542857D01*
X157509523Y-90638095D01*
X157461904Y-90780952D01*
X156890476Y-91352380D01*
X157509523Y-91352380D01*
X158900000Y-94552380D02*
X158900000Y-94790476D01*
X158661904Y-94695238D02*
X158900000Y-94790476D01*
X159138095Y-94695238D01*
X158757142Y-94980952D02*
X158900000Y-94790476D01*
X159042857Y-94980952D01*
X155844896Y-100084381D02*
X155844896Y-100893905D01*
X155892515Y-100989143D01*
X155940134Y-101036762D01*
X156035372Y-101084381D01*
X156225848Y-101084381D01*
X156321086Y-101036762D01*
X156368705Y-100989143D01*
X156416324Y-100893905D01*
X156416324Y-100084381D01*
X157321086Y-100417715D02*
X157321086Y-101084381D01*
X157082991Y-100036762D02*
X156844896Y-100751048D01*
X157463943Y-100751048D01*
X158906801Y-99084381D02*
X158906801Y-99322477D01*
X158668705Y-99227239D02*
X158906801Y-99322477D01*
X159144896Y-99227239D01*
X158763943Y-99512953D02*
X158906801Y-99322477D01*
X159049658Y-99512953D01*
X160838095Y-100752380D02*
X160838095Y-101561904D01*
X160885714Y-101657142D01*
X160933333Y-101704761D01*
X161028571Y-101752380D01*
X161219047Y-101752380D01*
X161314285Y-101704761D01*
X161361904Y-101657142D01*
X161409523Y-101561904D01*
X161409523Y-100752380D01*
X162361904Y-100752380D02*
X161885714Y-100752380D01*
X161838095Y-101228571D01*
X161885714Y-101180952D01*
X161980952Y-101133333D01*
X162219047Y-101133333D01*
X162314285Y-101180952D01*
X162361904Y-101228571D01*
X162409523Y-101323809D01*
X162409523Y-101561904D01*
X162361904Y-101657142D01*
X162314285Y-101704761D01*
X162219047Y-101752380D01*
X161980952Y-101752380D01*
X161885714Y-101704761D01*
X161838095Y-101657142D01*
X159600000Y-96552380D02*
X159600000Y-96790476D01*
X159361904Y-96695238D02*
X159600000Y-96790476D01*
X159838095Y-96695238D01*
X159457142Y-96980952D02*
X159600000Y-96790476D01*
X159742857Y-96980952D01*
X161138095Y-90952380D02*
X161138095Y-91761904D01*
X161185714Y-91857142D01*
X161233333Y-91904761D01*
X161328571Y-91952380D01*
X161519047Y-91952380D01*
X161614285Y-91904761D01*
X161661904Y-91857142D01*
X161709523Y-91761904D01*
X161709523Y-90952380D01*
X162090476Y-90952380D02*
X162709523Y-90952380D01*
X162376190Y-91333333D01*
X162519047Y-91333333D01*
X162614285Y-91380952D01*
X162661904Y-91428571D01*
X162709523Y-91523809D01*
X162709523Y-91761904D01*
X162661904Y-91857142D01*
X162614285Y-91904761D01*
X162519047Y-91952380D01*
X162233333Y-91952380D01*
X162138095Y-91904761D01*
X162090476Y-91857142D01*
X159600000Y-91952380D02*
X159600000Y-92190476D01*
X159361904Y-92095238D02*
X159600000Y-92190476D01*
X159838095Y-92095238D01*
X159457142Y-92380952D02*
X159600000Y-92190476D01*
X159742857Y-92380952D01*
X137166666Y-112252380D02*
X137166666Y-112966666D01*
X137119047Y-113109523D01*
X137023809Y-113204761D01*
X136880952Y-113252380D01*
X136785714Y-113252380D01*
X138166666Y-113252380D02*
X137595238Y-113252380D01*
X137880952Y-113252380D02*
X137880952Y-112252380D01*
X137785714Y-112395238D01*
X137690476Y-112490476D01*
X137595238Y-112538095D01*
X165666459Y-91252040D02*
X165666459Y-91966770D01*
X165618810Y-92109716D01*
X165523513Y-92205013D01*
X165380567Y-92252662D01*
X165285270Y-92252662D01*
X166047648Y-91252040D02*
X166667081Y-91252040D01*
X166333540Y-91633229D01*
X166476486Y-91633229D01*
X166571784Y-91680878D01*
X166619432Y-91728527D01*
X166667081Y-91823824D01*
X166667081Y-92062067D01*
X166619432Y-92157365D01*
X166571784Y-92205013D01*
X166476486Y-92252662D01*
X166190594Y-92252662D01*
X166095297Y-92205013D01*
X166047648Y-92157365D01*
X140661904Y-96552380D02*
X140661904Y-95552380D01*
X140900000Y-95552380D01*
X141042857Y-95600000D01*
X141138095Y-95695238D01*
X141185714Y-95790476D01*
X141233333Y-95980952D01*
X141233333Y-96123809D01*
X141185714Y-96314285D01*
X141138095Y-96409523D01*
X141042857Y-96504761D01*
X140900000Y-96552380D01*
X140661904Y-96552380D01*
X141614285Y-95647619D02*
X141661904Y-95600000D01*
X141757142Y-95552380D01*
X141995238Y-95552380D01*
X142090476Y-95600000D01*
X142138095Y-95647619D01*
X142185714Y-95742857D01*
X142185714Y-95838095D01*
X142138095Y-95980952D01*
X141566666Y-96552380D01*
X142185714Y-96552380D01*
X140752380Y-109138095D02*
X139752380Y-109138095D01*
X139752380Y-108900000D01*
X139800000Y-108757142D01*
X139895238Y-108661904D01*
X139990476Y-108614285D01*
X140180952Y-108566666D01*
X140323809Y-108566666D01*
X140514285Y-108614285D01*
X140609523Y-108661904D01*
X140704761Y-108757142D01*
X140752380Y-108900000D01*
X140752380Y-109138095D01*
X140752380Y-107614285D02*
X140752380Y-108185714D01*
X140752380Y-107900000D02*
X139752380Y-107900000D01*
X139895238Y-107995238D01*
X139990476Y-108090476D01*
X140038095Y-108185714D01*
X156233333Y-103657142D02*
X156185714Y-103704761D01*
X156042857Y-103752380D01*
X155947619Y-103752380D01*
X155804761Y-103704761D01*
X155709523Y-103609523D01*
X155661904Y-103514285D01*
X155614285Y-103323809D01*
X155614285Y-103180952D01*
X155661904Y-102990476D01*
X155709523Y-102895238D01*
X155804761Y-102800000D01*
X155947619Y-102752380D01*
X156042857Y-102752380D01*
X156185714Y-102800000D01*
X156233333Y-102847619D01*
X156614285Y-102847619D02*
X156661904Y-102800000D01*
X156757142Y-102752380D01*
X156995238Y-102752380D01*
X157090476Y-102800000D01*
X157138095Y-102847619D01*
X157185714Y-102942857D01*
X157185714Y-103038095D01*
X157138095Y-103180952D01*
X156566666Y-103752380D01*
X157185714Y-103752380D01*
X156233333Y-102357142D02*
X156185714Y-102404761D01*
X156042857Y-102452380D01*
X155947619Y-102452380D01*
X155804761Y-102404761D01*
X155709523Y-102309523D01*
X155661904Y-102214285D01*
X155614285Y-102023809D01*
X155614285Y-101880952D01*
X155661904Y-101690476D01*
X155709523Y-101595238D01*
X155804761Y-101500000D01*
X155947619Y-101452380D01*
X156042857Y-101452380D01*
X156185714Y-101500000D01*
X156233333Y-101547619D01*
X156566666Y-101452380D02*
X157185714Y-101452380D01*
X156852380Y-101833333D01*
X156995238Y-101833333D01*
X157090476Y-101880952D01*
X157138095Y-101928571D01*
X157185714Y-102023809D01*
X157185714Y-102261904D01*
X157138095Y-102357142D01*
X157090476Y-102404761D01*
X156995238Y-102452380D01*
X156709523Y-102452380D01*
X156614285Y-102404761D01*
X156566666Y-102357142D01*
X147933333Y-105857142D02*
X147885714Y-105904761D01*
X147742857Y-105952380D01*
X147647619Y-105952380D01*
X147504761Y-105904761D01*
X147409523Y-105809523D01*
X147361904Y-105714285D01*
X147314285Y-105523809D01*
X147314285Y-105380952D01*
X147361904Y-105190476D01*
X147409523Y-105095238D01*
X147504761Y-105000000D01*
X147647619Y-104952380D01*
X147742857Y-104952380D01*
X147885714Y-105000000D01*
X147933333Y-105047619D01*
X148790476Y-105285714D02*
X148790476Y-105952380D01*
X148552380Y-104904761D02*
X148314285Y-105619047D01*
X148933333Y-105619047D01*
X153957142Y-93866666D02*
X154004761Y-93914285D01*
X154052380Y-94057142D01*
X154052380Y-94152380D01*
X154004761Y-94295238D01*
X153909523Y-94390476D01*
X153814285Y-94438095D01*
X153623809Y-94485714D01*
X153480952Y-94485714D01*
X153290476Y-94438095D01*
X153195238Y-94390476D01*
X153100000Y-94295238D01*
X153052380Y-94152380D01*
X153052380Y-94057142D01*
X153100000Y-93914285D01*
X153147619Y-93866666D01*
X153052380Y-92961904D02*
X153052380Y-93438095D01*
X153528571Y-93485714D01*
X153480952Y-93438095D01*
X153433333Y-93342857D01*
X153433333Y-93104761D01*
X153480952Y-93009523D01*
X153528571Y-92961904D01*
X153623809Y-92914285D01*
X153861904Y-92914285D01*
X153957142Y-92961904D01*
X154004761Y-93009523D01*
X154052380Y-93104761D01*
X154052380Y-93342857D01*
X154004761Y-93438095D01*
X153957142Y-93485714D01*
X151933333Y-101057142D02*
X151885714Y-101104761D01*
X151742857Y-101152380D01*
X151647619Y-101152380D01*
X151504761Y-101104761D01*
X151409523Y-101009523D01*
X151361904Y-100914285D01*
X151314285Y-100723809D01*
X151314285Y-100580952D01*
X151361904Y-100390476D01*
X151409523Y-100295238D01*
X151504761Y-100200000D01*
X151647619Y-100152380D01*
X151742857Y-100152380D01*
X151885714Y-100200000D01*
X151933333Y-100247619D01*
X152790476Y-100152380D02*
X152600000Y-100152380D01*
X152504761Y-100200000D01*
X152457142Y-100247619D01*
X152361904Y-100390476D01*
X152314285Y-100580952D01*
X152314285Y-100961904D01*
X152361904Y-101057142D01*
X152409523Y-101104761D01*
X152504761Y-101152380D01*
X152695238Y-101152380D01*
X152790476Y-101104761D01*
X152838095Y-101057142D01*
X152885714Y-100961904D01*
X152885714Y-100723809D01*
X152838095Y-100628571D01*
X152790476Y-100580952D01*
X152695238Y-100533333D01*
X152504761Y-100533333D01*
X152409523Y-100580952D01*
X152361904Y-100628571D01*
X152314285Y-100723809D01*
X156183333Y-108657142D02*
X156135714Y-108704761D01*
X155992857Y-108752380D01*
X155897619Y-108752380D01*
X155754761Y-108704761D01*
X155659523Y-108609523D01*
X155611904Y-108514285D01*
X155564285Y-108323809D01*
X155564285Y-108180952D01*
X155611904Y-107990476D01*
X155659523Y-107895238D01*
X155754761Y-107800000D01*
X155897619Y-107752380D01*
X155992857Y-107752380D01*
X156135714Y-107800000D01*
X156183333Y-107847619D01*
X156516666Y-107752380D02*
X157183333Y-107752380D01*
X156754761Y-108752380D01*
X156233333Y-104957142D02*
X156185714Y-105004761D01*
X156042857Y-105052380D01*
X155947619Y-105052380D01*
X155804761Y-105004761D01*
X155709523Y-104909523D01*
X155661904Y-104814285D01*
X155614285Y-104623809D01*
X155614285Y-104480952D01*
X155661904Y-104290476D01*
X155709523Y-104195238D01*
X155804761Y-104100000D01*
X155947619Y-104052380D01*
X156042857Y-104052380D01*
X156185714Y-104100000D01*
X156233333Y-104147619D01*
X156804761Y-104480952D02*
X156709523Y-104433333D01*
X156661904Y-104385714D01*
X156614285Y-104290476D01*
X156614285Y-104242857D01*
X156661904Y-104147619D01*
X156709523Y-104100000D01*
X156804761Y-104052380D01*
X156995238Y-104052380D01*
X157090476Y-104100000D01*
X157138095Y-104147619D01*
X157185714Y-104242857D01*
X157185714Y-104290476D01*
X157138095Y-104385714D01*
X157090476Y-104433333D01*
X156995238Y-104480952D01*
X156804761Y-104480952D01*
X156709523Y-104528571D01*
X156661904Y-104576190D01*
X156614285Y-104671428D01*
X156614285Y-104861904D01*
X156661904Y-104957142D01*
X156709523Y-105004761D01*
X156804761Y-105052380D01*
X156995238Y-105052380D01*
X157090476Y-105004761D01*
X157138095Y-104957142D01*
X157185714Y-104861904D01*
X157185714Y-104671428D01*
X157138095Y-104576190D01*
X157090476Y-104528571D01*
X156995238Y-104480952D01*
X156233333Y-106257142D02*
X156185714Y-106304761D01*
X156042857Y-106352380D01*
X155947619Y-106352380D01*
X155804761Y-106304761D01*
X155709523Y-106209523D01*
X155661904Y-106114285D01*
X155614285Y-105923809D01*
X155614285Y-105780952D01*
X155661904Y-105590476D01*
X155709523Y-105495238D01*
X155804761Y-105400000D01*
X155947619Y-105352380D01*
X156042857Y-105352380D01*
X156185714Y-105400000D01*
X156233333Y-105447619D01*
X156709523Y-106352380D02*
X156900000Y-106352380D01*
X156995238Y-106304761D01*
X157042857Y-106257142D01*
X157138095Y-106114285D01*
X157185714Y-105923809D01*
X157185714Y-105542857D01*
X157138095Y-105447619D01*
X157090476Y-105400000D01*
X156995238Y-105352380D01*
X156804761Y-105352380D01*
X156709523Y-105400000D01*
X156661904Y-105447619D01*
X156614285Y-105542857D01*
X156614285Y-105780952D01*
X156661904Y-105876190D01*
X156709523Y-105923809D01*
X156804761Y-105971428D01*
X156995238Y-105971428D01*
X157090476Y-105923809D01*
X157138095Y-105876190D01*
X157185714Y-105780952D01*
X163357142Y-107457142D02*
X163309523Y-107504761D01*
X163166666Y-107552380D01*
X163071428Y-107552380D01*
X162928571Y-107504761D01*
X162833333Y-107409523D01*
X162785714Y-107314285D01*
X162738095Y-107123809D01*
X162738095Y-106980952D01*
X162785714Y-106790476D01*
X162833333Y-106695238D01*
X162928571Y-106600000D01*
X163071428Y-106552380D01*
X163166666Y-106552380D01*
X163309523Y-106600000D01*
X163357142Y-106647619D01*
X164309523Y-107552380D02*
X163738095Y-107552380D01*
X164023809Y-107552380D02*
X164023809Y-106552380D01*
X163928571Y-106695238D01*
X163833333Y-106790476D01*
X163738095Y-106838095D01*
X164928571Y-106552380D02*
X165023809Y-106552380D01*
X165119047Y-106600000D01*
X165166666Y-106647619D01*
X165214285Y-106742857D01*
X165261904Y-106933333D01*
X165261904Y-107171428D01*
X165214285Y-107361904D01*
X165166666Y-107457142D01*
X165119047Y-107504761D01*
X165023809Y-107552380D01*
X164928571Y-107552380D01*
X164833333Y-107504761D01*
X164785714Y-107457142D01*
X164738095Y-107361904D01*
X164690476Y-107171428D01*
X164690476Y-106933333D01*
X164738095Y-106742857D01*
X164785714Y-106647619D01*
X164833333Y-106600000D01*
X164928571Y-106552380D01*
X174757142Y-112257142D02*
X174709523Y-112304761D01*
X174566666Y-112352380D01*
X174471428Y-112352380D01*
X174328571Y-112304761D01*
X174233333Y-112209523D01*
X174185714Y-112114285D01*
X174138095Y-111923809D01*
X174138095Y-111780952D01*
X174185714Y-111590476D01*
X174233333Y-111495238D01*
X174328571Y-111400000D01*
X174471428Y-111352380D01*
X174566666Y-111352380D01*
X174709523Y-111400000D01*
X174757142Y-111447619D01*
X175709523Y-112352380D02*
X175138095Y-112352380D01*
X175423809Y-112352380D02*
X175423809Y-111352380D01*
X175328571Y-111495238D01*
X175233333Y-111590476D01*
X175138095Y-111638095D01*
X176661904Y-112352380D02*
X176090476Y-112352380D01*
X176376190Y-112352380D02*
X176376190Y-111352380D01*
X176280952Y-111495238D01*
X176185714Y-111590476D01*
X176090476Y-111638095D01*
X155461904Y-110952380D02*
X155461904Y-109952380D01*
X155700000Y-109952380D01*
X155842857Y-110000000D01*
X155938095Y-110095238D01*
X155985714Y-110190476D01*
X156033333Y-110380952D01*
X156033333Y-110523809D01*
X155985714Y-110714285D01*
X155938095Y-110809523D01*
X155842857Y-110904761D01*
X155700000Y-110952380D01*
X155461904Y-110952380D01*
X156366666Y-109952380D02*
X156985714Y-109952380D01*
X156652380Y-110333333D01*
X156795238Y-110333333D01*
X156890476Y-110380952D01*
X156938095Y-110428571D01*
X156985714Y-110523809D01*
X156985714Y-110761904D01*
X156938095Y-110857142D01*
X156890476Y-110904761D01*
X156795238Y-110952380D01*
X156509523Y-110952380D01*
X156414285Y-110904761D01*
X156366666Y-110857142D01*
X153738095Y-110752380D02*
X153738095Y-111561904D01*
X153785714Y-111657142D01*
X153833333Y-111704761D01*
X153928571Y-111752380D01*
X154119047Y-111752380D01*
X154214285Y-111704761D01*
X154261904Y-111657142D01*
X154309523Y-111561904D01*
X154309523Y-110752380D01*
X155309523Y-111752380D02*
X154738095Y-111752380D01*
X155023809Y-111752380D02*
X155023809Y-110752380D01*
X154928571Y-110895238D01*
X154833333Y-110990476D01*
X154738095Y-111038095D01*
X136966459Y-98452040D02*
X136966459Y-99166770D01*
X136918810Y-99309716D01*
X136823513Y-99405013D01*
X136680567Y-99452662D01*
X136585270Y-99452662D01*
X137395297Y-98547337D02*
X137442946Y-98499689D01*
X137538243Y-98452040D01*
X137776486Y-98452040D01*
X137871784Y-98499689D01*
X137919432Y-98547337D01*
X137967081Y-98642635D01*
X137967081Y-98737932D01*
X137919432Y-98880878D01*
X137347648Y-99452662D01*
X137967081Y-99452662D01*
M02*
