M48
; DRILL file {KiCad (5.1.9)-1} date 05/05/21 15:58:15
; FORMAT={3:3/ absolute / metric / suppress leading zeros}
; #@! TF.CreationDate,2021-05-05T15:58:15+09:00
; #@! TF.GenerationSoftware,Kicad,Pcbnew,(5.1.9)-1
FMAT,2
METRIC,TZ
T1C0.300
T2C0.500
T3C0.800
T4C1.000
T5C1.700
%
G90
G05
T1
X148400Y-107300
X148600Y-104000
X152600Y-100900
X153325Y-103200
X155822Y-103983
X156000Y-107400
X156000Y-109600
X156400Y-106200
X156500Y-104900
X156600Y-102000
X156700Y-103700
X158900Y-99800
X159407Y-92500
X160200Y-102000
X160200Y-104600
T2
X131900Y-89700
X143550Y-105300
X154500Y-92000
X154500Y-92900
X154500Y-93800
X154500Y-94700
X154500Y-96500
X154500Y-97500
X154500Y-98500
X154500Y-99500
X160400Y-110500
T3
X143660Y-107800
X143660Y-111800
X144150Y-109800
X144150Y-113800
X144560Y-101100
X145050Y-103100
X146200Y-107800
X146200Y-111800
X146690Y-109800
X146690Y-113800
X147100Y-101100
X147590Y-103100
X148500Y-89800
X148500Y-93300
X149400Y-112400
X149400Y-114940
X151400Y-111860
X151400Y-114400
T4
X168400Y-107300
X173400Y-107300
T5
X136950Y-102100
X136950Y-106060
X136950Y-110020
T4
G00X131100Y-94500
M15
G01X131100Y-92500
M16
G05
G00X135100Y-98200
M15
G01X133100Y-98200
M16
G05
G00X137100Y-94750
M15
G01X137100Y-92250
M16
G05
G00X166500Y-95950
M15
G01X166500Y-98450
M16
G05
G00X168500Y-92500
M15
G01X170500Y-92500
M16
G05
G00X172500Y-96200
M15
G01X172500Y-98200
M16
G05
T0
M30
