G04 #@! TF.GenerationSoftware,KiCad,Pcbnew,(5.1.9)-1*
G04 #@! TF.CreationDate,2021-05-05T15:58:12+09:00*
G04 #@! TF.ProjectId,PowerPathController_LTC4417,506f7765-7250-4617-9468-436f6e74726f,rev?*
G04 #@! TF.SameCoordinates,Original*
G04 #@! TF.FileFunction,Soldermask,Top*
G04 #@! TF.FilePolarity,Negative*
%FSLAX46Y46*%
G04 Gerber Fmt 4.6, Leading zero omitted, Abs format (unit mm)*
G04 Created by KiCad (PCBNEW (5.1.9)-1) date 2021-05-05 15:58:12*
%MOMM*%
%LPD*%
G01*
G04 APERTURE LIST*
%ADD10C,0.100000*%
%ADD11C,1.600000*%
%ADD12O,1.600000X1.600000*%
%ADD13R,1.600000X1.600000*%
%ADD14R,0.863600X0.304800*%
%ADD15C,2.700000*%
%ADD16O,4.500000X2.250000*%
%ADD17O,2.250000X4.500000*%
%ADD18O,2.500000X5.000000*%
%ADD19R,2.300000X2.500000*%
%ADD20R,0.800000X0.750000*%
%ADD21R,1.000000X1.250000*%
%ADD22R,0.750000X0.800000*%
%ADD23R,1.000000X2.500000*%
%ADD24R,2.500000X1.000000*%
%ADD25C,2.000000*%
%ADD26R,2.000000X2.000000*%
%ADD27R,0.600000X0.800000*%
%ADD28R,1.200000X0.400000*%
G04 APERTURE END LIST*
D10*
G36*
X156800000Y-94700000D02*
G01*
X155700000Y-94700000D01*
X155700000Y-92300000D01*
X156800000Y-92300000D01*
X156800000Y-91600000D01*
X157100000Y-91600000D01*
X157100000Y-95400000D01*
X156800000Y-95400000D01*
X156800000Y-94700000D01*
G37*
X156800000Y-94700000D02*
X155700000Y-94700000D01*
X155700000Y-92300000D01*
X156800000Y-92300000D01*
X156800000Y-91600000D01*
X157100000Y-91600000D01*
X157100000Y-95400000D01*
X156800000Y-95400000D01*
X156800000Y-94700000D01*
G36*
X156806801Y-99232001D02*
G01*
X155706801Y-99232001D01*
X155706801Y-96832001D01*
X156806801Y-96832001D01*
X156806801Y-96132001D01*
X157106801Y-96132001D01*
X157106801Y-99932001D01*
X156806801Y-99932001D01*
X156806801Y-99232001D01*
G37*
X156806801Y-99232001D02*
X155706801Y-99232001D01*
X155706801Y-96832001D01*
X156806801Y-96832001D01*
X156806801Y-96132001D01*
X157106801Y-96132001D01*
X157106801Y-99932001D01*
X156806801Y-99932001D01*
X156806801Y-99232001D01*
G36*
X161700000Y-97500000D02*
G01*
X162800000Y-97500000D01*
X162800000Y-99900000D01*
X161700000Y-99900000D01*
X161700000Y-100600000D01*
X161400000Y-100600000D01*
X161400000Y-96800000D01*
X161700000Y-96800000D01*
X161700000Y-97500000D01*
G37*
X161700000Y-97500000D02*
X162800000Y-97500000D01*
X162800000Y-99900000D01*
X161700000Y-99900000D01*
X161700000Y-100600000D01*
X161400000Y-100600000D01*
X161400000Y-96800000D01*
X161700000Y-96800000D01*
X161700000Y-97500000D01*
G36*
X161700000Y-92900000D02*
G01*
X162800000Y-92900000D01*
X162800000Y-95300000D01*
X161700000Y-95300000D01*
X161700000Y-96000000D01*
X161400000Y-96000000D01*
X161400000Y-92200000D01*
X161700000Y-92200000D01*
X161700000Y-92900000D01*
G37*
X161700000Y-92900000D02*
X162800000Y-92900000D01*
X162800000Y-95300000D01*
X161700000Y-95300000D01*
X161700000Y-96000000D01*
X161400000Y-96000000D01*
X161400000Y-92200000D01*
X161700000Y-92200000D01*
X161700000Y-92900000D01*
D11*
X145050000Y-103100000D03*
D12*
X147590000Y-103100000D03*
D11*
X147100000Y-101100000D03*
D12*
X144560000Y-101100000D03*
D11*
X144150000Y-109800000D03*
D12*
X146690000Y-109800000D03*
D11*
X146200000Y-107800000D03*
D12*
X143660000Y-107800000D03*
D11*
X144150000Y-113800000D03*
D12*
X146690000Y-113800000D03*
D11*
X146200000Y-111800000D03*
D12*
X143660000Y-111800000D03*
D11*
X151400000Y-114400000D03*
D12*
X151400000Y-111860000D03*
D11*
X149400000Y-112400000D03*
D12*
X149400000Y-114940000D03*
D11*
X148500000Y-89800000D03*
D13*
X148500000Y-93300000D03*
D14*
X158474800Y-94474999D03*
X158474800Y-93825001D03*
X158474800Y-93174999D03*
X158474800Y-92525001D03*
X155325200Y-92525001D03*
X155325200Y-93174999D03*
X155325200Y-93825001D03*
X155325200Y-94474999D03*
X158481601Y-99007000D03*
X158481601Y-98357002D03*
X158481601Y-97707000D03*
X158481601Y-97057002D03*
X155332001Y-97057002D03*
X155332001Y-97707000D03*
X155332001Y-98357002D03*
X155332001Y-99007000D03*
X160025200Y-97725001D03*
X160025200Y-98374999D03*
X160025200Y-99025001D03*
X160025200Y-99674999D03*
X163174800Y-99674999D03*
X163174800Y-99025001D03*
X163174800Y-98374999D03*
X163174800Y-97725001D03*
X160025200Y-93125001D03*
X160025200Y-93774999D03*
X160025200Y-94425001D03*
X160025200Y-95074999D03*
X163174800Y-95074999D03*
X163174800Y-94425001D03*
X163174800Y-93774999D03*
X163174800Y-93125001D03*
D15*
X136950000Y-110020000D03*
X136950000Y-106060000D03*
G36*
G01*
X135850001Y-100750000D02*
X138049999Y-100750000D01*
G75*
G02*
X138300000Y-101000001I0J-250001D01*
G01*
X138300000Y-103199999D01*
G75*
G02*
X138049999Y-103450000I-250001J0D01*
G01*
X135850001Y-103450000D01*
G75*
G02*
X135600000Y-103199999I0J250001D01*
G01*
X135600000Y-101000001D01*
G75*
G02*
X135850001Y-100750000I250001J0D01*
G01*
G37*
D16*
X169500000Y-92500000D03*
D17*
X172500000Y-97200000D03*
D18*
X166500000Y-97200000D03*
D19*
X141400000Y-93950000D03*
X141400000Y-89650000D03*
X141200000Y-101950000D03*
X141200000Y-106250000D03*
D20*
X159250000Y-103300000D03*
X157750000Y-103300000D03*
X157750000Y-102000000D03*
X159250000Y-102000000D03*
D21*
X144700000Y-105500000D03*
X146700000Y-105500000D03*
D22*
X153600000Y-92150000D03*
X153600000Y-90650000D03*
D20*
X153450000Y-100700000D03*
X154950000Y-100700000D03*
D23*
X160850000Y-108300000D03*
X157850000Y-108300000D03*
D20*
X159250000Y-104600000D03*
X157750000Y-104600000D03*
X157750000Y-105900000D03*
X159250000Y-105900000D03*
D24*
X164000000Y-102700000D03*
X164000000Y-105700000D03*
D25*
X173400000Y-107300000D03*
D26*
X168400000Y-107300000D03*
D27*
X159350000Y-110500000D03*
X157650000Y-110500000D03*
D28*
X154825001Y-102582501D03*
X154825001Y-103217501D03*
X154825001Y-103852501D03*
X154825001Y-104487501D03*
X154825001Y-105122501D03*
X154825001Y-105757501D03*
X154825001Y-106392501D03*
X154825001Y-107027501D03*
X154825001Y-107662501D03*
X154825001Y-108297501D03*
X154825001Y-108932501D03*
X154825001Y-109567501D03*
X149625001Y-109567501D03*
X149625001Y-108932501D03*
X149625001Y-108297501D03*
X149625001Y-107662501D03*
X149625001Y-107027501D03*
X149625001Y-106392501D03*
X149625001Y-105757501D03*
X149625001Y-105122501D03*
X149625001Y-104487501D03*
X149625001Y-103852501D03*
X149625001Y-103217501D03*
X149625001Y-102582501D03*
D18*
X137100000Y-93500000D03*
D17*
X131100000Y-93500000D03*
D16*
X134100000Y-98200000D03*
M02*
