G04 #@! TF.GenerationSoftware,KiCad,Pcbnew,(5.1.9)-1*
G04 #@! TF.CreationDate,2021-05-05T15:58:12+09:00*
G04 #@! TF.ProjectId,PowerPathController_LTC4417,506f7765-7250-4617-9468-436f6e74726f,rev?*
G04 #@! TF.SameCoordinates,Original*
G04 #@! TF.FileFunction,Copper,L2,Bot*
G04 #@! TF.FilePolarity,Positive*
%FSLAX46Y46*%
G04 Gerber Fmt 4.6, Leading zero omitted, Abs format (unit mm)*
G04 Created by KiCad (PCBNEW (5.1.9)-1) date 2021-05-05 15:58:12*
%MOMM*%
%LPD*%
G01*
G04 APERTURE LIST*
G04 #@! TA.AperFunction,ComponentPad*
%ADD10C,1.600000*%
G04 #@! TD*
G04 #@! TA.AperFunction,ComponentPad*
%ADD11O,1.600000X1.600000*%
G04 #@! TD*
G04 #@! TA.AperFunction,ComponentPad*
%ADD12R,1.600000X1.600000*%
G04 #@! TD*
G04 #@! TA.AperFunction,ComponentPad*
%ADD13C,2.700000*%
G04 #@! TD*
G04 #@! TA.AperFunction,ComponentPad*
%ADD14O,4.500000X2.250000*%
G04 #@! TD*
G04 #@! TA.AperFunction,ComponentPad*
%ADD15O,2.250000X4.500000*%
G04 #@! TD*
G04 #@! TA.AperFunction,ComponentPad*
%ADD16O,2.500000X5.000000*%
G04 #@! TD*
G04 #@! TA.AperFunction,ComponentPad*
%ADD17C,2.000000*%
G04 #@! TD*
G04 #@! TA.AperFunction,ComponentPad*
%ADD18R,2.000000X2.000000*%
G04 #@! TD*
G04 #@! TA.AperFunction,ViaPad*
%ADD19C,0.600000*%
G04 #@! TD*
G04 #@! TA.AperFunction,ViaPad*
%ADD20C,0.900000*%
G04 #@! TD*
G04 #@! TA.AperFunction,Conductor*
%ADD21C,0.400000*%
G04 #@! TD*
G04 #@! TA.AperFunction,Conductor*
%ADD22C,0.200000*%
G04 #@! TD*
G04 #@! TA.AperFunction,Conductor*
%ADD23C,0.152400*%
G04 #@! TD*
G04 #@! TA.AperFunction,Conductor*
%ADD24C,0.100000*%
G04 #@! TD*
G04 APERTURE END LIST*
D10*
X145050000Y-103100000D03*
D11*
X147590000Y-103100000D03*
D10*
X147100000Y-101100000D03*
D11*
X144560000Y-101100000D03*
D10*
X144150000Y-109800000D03*
D11*
X146690000Y-109800000D03*
D10*
X146200000Y-107800000D03*
D11*
X143660000Y-107800000D03*
D10*
X144150000Y-113800000D03*
D11*
X146690000Y-113800000D03*
D10*
X146200000Y-111800000D03*
D11*
X143660000Y-111800000D03*
D10*
X151400000Y-114400000D03*
D11*
X151400000Y-111860000D03*
D10*
X149400000Y-112400000D03*
D11*
X149400000Y-114940000D03*
D10*
X148500000Y-89800000D03*
D12*
X148500000Y-93300000D03*
D13*
X136950000Y-110020000D03*
X136950000Y-106060000D03*
G04 #@! TA.AperFunction,ComponentPad*
G36*
G01*
X135850001Y-100750000D02*
X138049999Y-100750000D01*
G75*
G02*
X138300000Y-101000001I0J-250001D01*
G01*
X138300000Y-103199999D01*
G75*
G02*
X138049999Y-103450000I-250001J0D01*
G01*
X135850001Y-103450000D01*
G75*
G02*
X135600000Y-103199999I0J250001D01*
G01*
X135600000Y-101000001D01*
G75*
G02*
X135850001Y-100750000I250001J0D01*
G01*
G37*
G04 #@! TD.AperFunction*
D14*
X169500000Y-92500000D03*
D15*
X172500000Y-97200000D03*
D16*
X166500000Y-97200000D03*
D17*
X173400000Y-107300000D03*
D18*
X168400000Y-107300000D03*
D16*
X137100000Y-93500000D03*
D15*
X131100000Y-93500000D03*
D14*
X134100000Y-98200000D03*
D19*
X160200000Y-102000000D03*
X160200000Y-104600000D03*
X156000000Y-107400000D03*
X156000000Y-109600000D03*
D20*
X160400000Y-110500000D03*
D19*
X148400000Y-107300000D03*
X148600000Y-104000000D03*
X152600000Y-100900000D03*
X155821805Y-103983283D03*
X156600000Y-102000000D03*
D20*
X154500000Y-92000000D03*
X154500000Y-92900000D03*
X154500000Y-93800000D03*
X154500000Y-94700000D03*
X143549998Y-105300000D03*
X131900000Y-89700000D03*
D19*
X156700000Y-103700000D03*
D20*
X154500000Y-96500000D03*
X154500000Y-97500000D03*
X154500000Y-98500000D03*
X154500000Y-99500000D03*
D19*
X153324990Y-103200000D03*
X156500000Y-104900000D03*
X159406602Y-92500000D03*
X156400000Y-106200000D03*
X158900000Y-99800000D03*
D21*
X144150000Y-109800000D02*
X142100000Y-109800000D01*
D22*
X143549998Y-107689998D02*
X143660000Y-107800000D01*
X143549998Y-105300000D02*
X143549998Y-107689998D01*
X135700000Y-93500000D02*
X137100000Y-93500000D01*
X131900000Y-89700000D02*
X135700000Y-93500000D01*
X156600000Y-102000000D02*
X156600000Y-101300000D01*
X156600000Y-101300000D02*
X157700000Y-100200000D01*
X157700000Y-100200000D02*
X157700000Y-95400000D01*
X157700000Y-95400000D02*
X156800000Y-94500000D01*
X156200000Y-103200000D02*
X156700000Y-103700000D01*
X153324990Y-103200000D02*
X156200000Y-103200000D01*
X158299998Y-93606604D02*
X159106603Y-92799999D01*
X156500000Y-104900000D02*
X158299998Y-103100002D01*
X158299998Y-103100002D02*
X158299998Y-93606604D01*
X159106603Y-92799999D02*
X159406602Y-92500000D01*
X158900000Y-103700000D02*
X158900000Y-99800000D01*
X156400000Y-106200000D02*
X158900000Y-103700000D01*
X180475001Y-87025067D02*
X180475000Y-115974320D01*
X180474933Y-115975000D01*
X150190952Y-115975000D01*
X150228702Y-115949776D01*
X150409776Y-115768702D01*
X150552045Y-115555781D01*
X150598043Y-115444732D01*
X150688789Y-115535478D01*
X150804220Y-115420047D01*
X150895409Y-115604899D01*
X151140169Y-115680189D01*
X151394914Y-115706281D01*
X151649855Y-115682173D01*
X151895193Y-115608791D01*
X151904591Y-115604899D01*
X151995781Y-115420045D01*
X151400000Y-114824264D01*
X151385858Y-114838407D01*
X150961594Y-114414143D01*
X150975736Y-114400000D01*
X151824264Y-114400000D01*
X152420045Y-114995781D01*
X152604899Y-114904591D01*
X152680189Y-114659831D01*
X152706281Y-114405086D01*
X152682173Y-114150145D01*
X152608791Y-113904807D01*
X152604899Y-113895409D01*
X152420045Y-113804219D01*
X151824264Y-114400000D01*
X150975736Y-114400000D01*
X150379955Y-113804219D01*
X150195101Y-113895409D01*
X150191946Y-113905665D01*
X150015781Y-113787955D01*
X149779196Y-113689958D01*
X149678860Y-113670000D01*
X149779196Y-113650042D01*
X150015781Y-113552045D01*
X150228702Y-113409776D01*
X150409776Y-113228702D01*
X150552045Y-113015781D01*
X150603586Y-112891350D01*
X150784219Y-113012045D01*
X151020804Y-113110042D01*
X151114117Y-113128603D01*
X150904807Y-113191209D01*
X150895409Y-113195101D01*
X150804219Y-113379955D01*
X151400000Y-113975736D01*
X151995781Y-113379955D01*
X151904591Y-113195101D01*
X151687419Y-113128297D01*
X151779196Y-113110042D01*
X152015781Y-113012045D01*
X152228702Y-112869776D01*
X152409776Y-112688702D01*
X152552045Y-112475781D01*
X152650042Y-112239196D01*
X152700000Y-111988039D01*
X152700000Y-111731961D01*
X152650042Y-111480804D01*
X152552045Y-111244219D01*
X152409776Y-111031298D01*
X152228702Y-110850224D01*
X152015781Y-110707955D01*
X151779196Y-110609958D01*
X151528039Y-110560000D01*
X151271961Y-110560000D01*
X151020804Y-110609958D01*
X150784219Y-110707955D01*
X150571298Y-110850224D01*
X150390224Y-111031298D01*
X150247955Y-111244219D01*
X150196414Y-111368650D01*
X150015781Y-111247955D01*
X149779196Y-111149958D01*
X149528039Y-111100000D01*
X149271961Y-111100000D01*
X149020804Y-111149958D01*
X148784219Y-111247955D01*
X148571298Y-111390224D01*
X148390224Y-111571298D01*
X148247955Y-111784219D01*
X148149958Y-112020804D01*
X148100000Y-112271961D01*
X148100000Y-112528039D01*
X148149958Y-112779196D01*
X148247955Y-113015781D01*
X148390224Y-113228702D01*
X148571298Y-113409776D01*
X148784219Y-113552045D01*
X149020804Y-113650042D01*
X149121140Y-113670000D01*
X149020804Y-113689958D01*
X148784219Y-113787955D01*
X148571298Y-113930224D01*
X148390224Y-114111298D01*
X148247955Y-114324219D01*
X148149958Y-114560804D01*
X148100000Y-114811961D01*
X148100000Y-115068039D01*
X148149958Y-115319196D01*
X148247955Y-115555781D01*
X148390224Y-115768702D01*
X148571298Y-115949776D01*
X148609048Y-115975000D01*
X123525680Y-115975000D01*
X123525000Y-115974933D01*
X123525000Y-114820045D01*
X143554219Y-114820045D01*
X143645409Y-115004899D01*
X143890169Y-115080189D01*
X144144914Y-115106281D01*
X144399855Y-115082173D01*
X144645193Y-115008791D01*
X144654591Y-115004899D01*
X144745781Y-114820045D01*
X144150000Y-114224264D01*
X143554219Y-114820045D01*
X123525000Y-114820045D01*
X123525000Y-111439730D01*
X135954534Y-111439730D01*
X136114364Y-111680546D01*
X136454377Y-111811664D01*
X136813436Y-111873929D01*
X137177743Y-111864948D01*
X137533299Y-111785068D01*
X137785636Y-111680546D01*
X137945466Y-111439730D01*
X136950000Y-110444264D01*
X135954534Y-111439730D01*
X123525000Y-111439730D01*
X123525000Y-109883436D01*
X135096071Y-109883436D01*
X135105052Y-110247743D01*
X135184932Y-110603299D01*
X135289454Y-110855636D01*
X135530270Y-111015466D01*
X136525736Y-110020000D01*
X137374264Y-110020000D01*
X138369730Y-111015466D01*
X138610546Y-110855636D01*
X138741664Y-110515623D01*
X138803929Y-110156564D01*
X138794948Y-109792257D01*
X138715068Y-109436701D01*
X138610546Y-109184364D01*
X138369730Y-109024534D01*
X137374264Y-110020000D01*
X136525736Y-110020000D01*
X135530270Y-109024534D01*
X135289454Y-109184364D01*
X135158336Y-109524377D01*
X135096071Y-109883436D01*
X123525000Y-109883436D01*
X123525000Y-108600270D01*
X135954534Y-108600270D01*
X136950000Y-109595736D01*
X137945466Y-108600270D01*
X137785636Y-108359454D01*
X137445623Y-108228336D01*
X137086564Y-108166071D01*
X136722257Y-108175052D01*
X136366701Y-108254932D01*
X136114364Y-108359454D01*
X135954534Y-108600270D01*
X123525000Y-108600270D01*
X123525000Y-93800000D01*
X129475000Y-93800000D01*
X129475000Y-94925000D01*
X129564751Y-95236257D01*
X129713501Y-95524024D01*
X129915533Y-95777242D01*
X130163083Y-95986180D01*
X130446639Y-96142809D01*
X130553857Y-96155475D01*
X130800000Y-96094694D01*
X130800000Y-93800000D01*
X131400000Y-93800000D01*
X131400000Y-96094694D01*
X131646143Y-96155475D01*
X131753361Y-96142809D01*
X132036917Y-95986180D01*
X132284467Y-95777242D01*
X132486499Y-95524024D01*
X132635249Y-95236257D01*
X132725000Y-94925000D01*
X132725000Y-93800000D01*
X131400000Y-93800000D01*
X130800000Y-93800000D01*
X129475000Y-93800000D01*
X123525000Y-93800000D01*
X123525000Y-92075000D01*
X129475000Y-92075000D01*
X129475000Y-93200000D01*
X130800000Y-93200000D01*
X130800000Y-90905306D01*
X131400000Y-90905306D01*
X131400000Y-93200000D01*
X132725000Y-93200000D01*
X132725000Y-92075000D01*
X132635249Y-91763743D01*
X132486499Y-91475976D01*
X132284467Y-91222758D01*
X132036917Y-91013820D01*
X131753361Y-90857191D01*
X131646143Y-90844525D01*
X131400000Y-90905306D01*
X130800000Y-90905306D01*
X130553857Y-90844525D01*
X130446639Y-90857191D01*
X130163083Y-91013820D01*
X129915533Y-91222758D01*
X129713501Y-91475976D01*
X129564751Y-91763743D01*
X129475000Y-92075000D01*
X123525000Y-92075000D01*
X123525000Y-89606433D01*
X130950000Y-89606433D01*
X130950000Y-89793567D01*
X130986508Y-89977105D01*
X131058121Y-90149994D01*
X131162087Y-90305590D01*
X131294410Y-90437913D01*
X131450006Y-90541879D01*
X131622895Y-90613492D01*
X131806433Y-90650000D01*
X131993567Y-90650000D01*
X132000161Y-90648688D01*
X135100000Y-93748528D01*
X135100000Y-95700000D01*
X135104277Y-95765263D01*
X135121314Y-95894673D01*
X135155097Y-96020752D01*
X135205047Y-96141342D01*
X135270312Y-96254383D01*
X135349772Y-96357936D01*
X135442064Y-96450228D01*
X135545617Y-96529688D01*
X135658658Y-96594953D01*
X135779248Y-96644903D01*
X135905327Y-96678686D01*
X136034737Y-96695723D01*
X136100000Y-96700000D01*
X138237408Y-96700000D01*
X138315685Y-96693835D01*
X138470307Y-96669326D01*
X138527922Y-96656670D01*
X138619184Y-96620913D01*
X138726927Y-96565967D01*
X136832184Y-98460710D01*
X136857862Y-98200000D01*
X136826487Y-97881444D01*
X136733568Y-97575131D01*
X136582675Y-97292830D01*
X136379608Y-97045392D01*
X136132170Y-96842325D01*
X135849869Y-96691432D01*
X135543556Y-96598513D01*
X135304824Y-96575000D01*
X132895176Y-96575000D01*
X132656444Y-96598513D01*
X132350131Y-96691432D01*
X132067830Y-96842325D01*
X131820392Y-97045392D01*
X131617325Y-97292830D01*
X131466432Y-97575131D01*
X131373513Y-97881444D01*
X131342138Y-98200000D01*
X131373513Y-98518556D01*
X131466432Y-98824869D01*
X131617325Y-99107170D01*
X131820392Y-99354608D01*
X132067830Y-99557675D01*
X132350131Y-99708568D01*
X132656444Y-99801487D01*
X132895176Y-99825000D01*
X135304824Y-99825000D01*
X135485710Y-99807184D01*
X134892894Y-100400000D01*
X134849771Y-100449172D01*
X134770311Y-100552726D01*
X134705047Y-100665765D01*
X134655097Y-100786355D01*
X134621314Y-100912434D01*
X134604277Y-101041844D01*
X134600000Y-101107107D01*
X134600000Y-103400000D01*
X134604277Y-103465263D01*
X134621314Y-103594673D01*
X134655097Y-103720752D01*
X134705047Y-103841342D01*
X134770312Y-103954383D01*
X134849772Y-104057936D01*
X134942064Y-104150228D01*
X135045617Y-104229688D01*
X135158658Y-104294953D01*
X135279248Y-104344903D01*
X135405327Y-104378686D01*
X135534737Y-104395723D01*
X135600000Y-104400000D01*
X136123314Y-104400000D01*
X136073697Y-104420552D01*
X135770694Y-104623011D01*
X135513011Y-104880694D01*
X135310552Y-105183697D01*
X135171095Y-105520375D01*
X135100000Y-105877791D01*
X135100000Y-106242209D01*
X135171095Y-106599625D01*
X135310552Y-106936303D01*
X135513011Y-107239306D01*
X135770694Y-107496989D01*
X136073697Y-107699448D01*
X136410375Y-107838905D01*
X136767791Y-107910000D01*
X137132209Y-107910000D01*
X137489625Y-107838905D01*
X137826303Y-107699448D01*
X137867440Y-107671961D01*
X142360000Y-107671961D01*
X142360000Y-107928039D01*
X142409958Y-108179196D01*
X142507955Y-108415781D01*
X142650224Y-108628702D01*
X142831298Y-108809776D01*
X143044219Y-108952045D01*
X143119913Y-108983398D01*
X143014522Y-109088789D01*
X143129953Y-109204220D01*
X142945101Y-109295409D01*
X142869811Y-109540169D01*
X142843719Y-109794914D01*
X142867827Y-110049855D01*
X142941209Y-110295193D01*
X142945101Y-110304591D01*
X143129953Y-110395780D01*
X143014522Y-110511211D01*
X143119913Y-110616602D01*
X143044219Y-110647955D01*
X142831298Y-110790224D01*
X142650224Y-110971298D01*
X142507955Y-111184219D01*
X142409958Y-111420804D01*
X142360000Y-111671961D01*
X142360000Y-111928039D01*
X142409958Y-112179196D01*
X142507955Y-112415781D01*
X142650224Y-112628702D01*
X142831298Y-112809776D01*
X143044219Y-112952045D01*
X143119913Y-112983398D01*
X143014522Y-113088789D01*
X143129953Y-113204220D01*
X142945101Y-113295409D01*
X142869811Y-113540169D01*
X142843719Y-113794914D01*
X142867827Y-114049855D01*
X142941209Y-114295193D01*
X142945101Y-114304591D01*
X143129955Y-114395781D01*
X143725736Y-113800000D01*
X143711594Y-113785858D01*
X144135858Y-113361594D01*
X144150000Y-113375736D01*
X144745781Y-112779955D01*
X144670576Y-112627505D01*
X144812045Y-112415781D01*
X144910042Y-112179196D01*
X144930000Y-112078860D01*
X144949958Y-112179196D01*
X145047955Y-112415781D01*
X145190224Y-112628702D01*
X145371298Y-112809776D01*
X145584219Y-112952045D01*
X145669488Y-112987365D01*
X145537955Y-113184219D01*
X145439958Y-113420804D01*
X145421397Y-113514117D01*
X145358791Y-113304807D01*
X145354899Y-113295409D01*
X145170045Y-113204219D01*
X144574264Y-113800000D01*
X145170045Y-114395781D01*
X145354899Y-114304591D01*
X145421703Y-114087419D01*
X145439958Y-114179196D01*
X145537955Y-114415781D01*
X145680224Y-114628702D01*
X145861298Y-114809776D01*
X146074219Y-114952045D01*
X146310804Y-115050042D01*
X146561961Y-115100000D01*
X146818039Y-115100000D01*
X147069196Y-115050042D01*
X147305781Y-114952045D01*
X147518702Y-114809776D01*
X147699776Y-114628702D01*
X147842045Y-114415781D01*
X147940042Y-114179196D01*
X147990000Y-113928039D01*
X147990000Y-113671961D01*
X147940042Y-113420804D01*
X147842045Y-113184219D01*
X147699776Y-112971298D01*
X147518702Y-112790224D01*
X147305781Y-112647955D01*
X147220512Y-112612635D01*
X147352045Y-112415781D01*
X147450042Y-112179196D01*
X147500000Y-111928039D01*
X147500000Y-111671961D01*
X147450042Y-111420804D01*
X147352045Y-111184219D01*
X147220512Y-110987365D01*
X147305781Y-110952045D01*
X147518702Y-110809776D01*
X147699776Y-110628702D01*
X147842045Y-110415781D01*
X147940042Y-110179196D01*
X147990000Y-109928039D01*
X147990000Y-109671961D01*
X147940042Y-109420804D01*
X147842045Y-109184219D01*
X147699776Y-108971298D01*
X147518702Y-108790224D01*
X147305781Y-108647955D01*
X147220512Y-108612635D01*
X147352045Y-108415781D01*
X147450042Y-108179196D01*
X147500000Y-107928039D01*
X147500000Y-107671961D01*
X147450042Y-107420804D01*
X147352045Y-107184219D01*
X147209776Y-106971298D01*
X147028702Y-106790224D01*
X146815781Y-106647955D01*
X146579196Y-106549958D01*
X146328039Y-106500000D01*
X146071961Y-106500000D01*
X145820804Y-106549958D01*
X145584219Y-106647955D01*
X145371298Y-106790224D01*
X145190224Y-106971298D01*
X145047955Y-107184219D01*
X144949958Y-107420804D01*
X144930000Y-107521140D01*
X144910042Y-107420804D01*
X144812045Y-107184219D01*
X144669776Y-106971298D01*
X144488702Y-106790224D01*
X144275781Y-106647955D01*
X144149998Y-106595854D01*
X144149998Y-106041648D01*
X144155588Y-106037913D01*
X144287911Y-105905590D01*
X144391877Y-105749994D01*
X144463490Y-105577105D01*
X144499998Y-105393567D01*
X144499998Y-105206433D01*
X144463490Y-105022895D01*
X144391877Y-104850006D01*
X144287911Y-104694410D01*
X144155588Y-104562087D01*
X143999992Y-104458121D01*
X143827103Y-104386508D01*
X143643565Y-104350000D01*
X143456431Y-104350000D01*
X143272893Y-104386508D01*
X143100004Y-104458121D01*
X142944408Y-104562087D01*
X142812085Y-104694410D01*
X142708119Y-104850006D01*
X142636506Y-105022895D01*
X142599998Y-105206433D01*
X142599998Y-105393567D01*
X142636506Y-105577105D01*
X142708119Y-105749994D01*
X142812085Y-105905590D01*
X142944408Y-106037913D01*
X142949998Y-106041648D01*
X142949999Y-106710911D01*
X142831298Y-106790224D01*
X142650224Y-106971298D01*
X142507955Y-107184219D01*
X142409958Y-107420804D01*
X142360000Y-107671961D01*
X137867440Y-107671961D01*
X138129306Y-107496989D01*
X138386989Y-107239306D01*
X138589448Y-106936303D01*
X138728905Y-106599625D01*
X138800000Y-106242209D01*
X138800000Y-105877791D01*
X138728905Y-105520375D01*
X138589448Y-105183697D01*
X138386989Y-104880694D01*
X138129306Y-104623011D01*
X137826303Y-104420552D01*
X137776686Y-104400000D01*
X138185145Y-104400000D01*
X138252583Y-104395431D01*
X138386223Y-104377240D01*
X138516187Y-104341192D01*
X138640103Y-104287944D01*
X138755706Y-104218469D01*
X138860881Y-104134038D01*
X138876081Y-104120045D01*
X144454219Y-104120045D01*
X144545409Y-104304899D01*
X144790169Y-104380189D01*
X145044914Y-104406281D01*
X145299855Y-104382173D01*
X145545193Y-104308791D01*
X145554591Y-104304899D01*
X145645781Y-104120045D01*
X145050000Y-103524264D01*
X144454219Y-104120045D01*
X138876081Y-104120045D01*
X138910608Y-104088260D01*
X142291541Y-100524576D01*
X142316729Y-100504356D01*
X142348727Y-100500000D01*
X143401418Y-100500000D01*
X143309958Y-100720804D01*
X143260000Y-100971961D01*
X143260000Y-101228039D01*
X143309958Y-101479196D01*
X143407955Y-101715781D01*
X143550224Y-101928702D01*
X143731298Y-102109776D01*
X143944219Y-102252045D01*
X144019913Y-102283398D01*
X143914522Y-102388789D01*
X144029953Y-102504220D01*
X143845101Y-102595409D01*
X143769811Y-102840169D01*
X143743719Y-103094914D01*
X143767827Y-103349855D01*
X143841209Y-103595193D01*
X143845101Y-103604591D01*
X144029955Y-103695781D01*
X144625736Y-103100000D01*
X144611594Y-103085858D01*
X145035858Y-102661594D01*
X145050000Y-102675736D01*
X145645781Y-102079955D01*
X145570576Y-101927505D01*
X145712045Y-101715781D01*
X145810042Y-101479196D01*
X145830000Y-101378860D01*
X145849958Y-101479196D01*
X145947955Y-101715781D01*
X146090224Y-101928702D01*
X146271298Y-102109776D01*
X146484219Y-102252045D01*
X146569488Y-102287365D01*
X146437955Y-102484219D01*
X146339958Y-102720804D01*
X146321397Y-102814117D01*
X146258791Y-102604807D01*
X146254899Y-102595409D01*
X146070045Y-102504219D01*
X145474264Y-103100000D01*
X146070045Y-103695781D01*
X146254899Y-103604591D01*
X146321703Y-103387419D01*
X146339958Y-103479196D01*
X146437955Y-103715781D01*
X146580224Y-103928702D01*
X146761298Y-104109776D01*
X146974219Y-104252045D01*
X147210804Y-104350042D01*
X147461961Y-104400000D01*
X147718039Y-104400000D01*
X147969196Y-104350042D01*
X148205781Y-104252045D01*
X148418702Y-104109776D01*
X148599776Y-103928702D01*
X148742045Y-103715781D01*
X148840042Y-103479196D01*
X148890000Y-103228039D01*
X148890000Y-102971961D01*
X148840042Y-102720804D01*
X148742045Y-102484219D01*
X148599776Y-102271298D01*
X148418702Y-102090224D01*
X148205781Y-101947955D01*
X148120512Y-101912635D01*
X148252045Y-101715781D01*
X148350042Y-101479196D01*
X148400000Y-101228039D01*
X148400000Y-100971961D01*
X148350042Y-100720804D01*
X148258582Y-100500000D01*
X156551473Y-100500000D01*
X156196581Y-100854892D01*
X156173684Y-100873683D01*
X156098705Y-100965045D01*
X156042990Y-101069279D01*
X156008682Y-101182379D01*
X156004185Y-101228039D01*
X155997097Y-101300000D01*
X156000000Y-101329474D01*
X156000000Y-101468629D01*
X155978599Y-101490030D01*
X155891049Y-101621058D01*
X155830743Y-101766649D01*
X155800000Y-101921207D01*
X155800000Y-102078793D01*
X155830743Y-102233351D01*
X155891049Y-102378942D01*
X155978599Y-102509970D01*
X156068629Y-102600000D01*
X153856361Y-102600000D01*
X153834960Y-102578599D01*
X153703932Y-102491049D01*
X153558341Y-102430743D01*
X153403783Y-102400000D01*
X153246197Y-102400000D01*
X153091639Y-102430743D01*
X152946048Y-102491049D01*
X152815020Y-102578599D01*
X152703589Y-102690030D01*
X152616039Y-102821058D01*
X152555733Y-102966649D01*
X152524990Y-103121207D01*
X152524990Y-103278793D01*
X152555733Y-103433351D01*
X152616039Y-103578942D01*
X152703589Y-103709970D01*
X152815020Y-103821401D01*
X152946048Y-103908951D01*
X153091639Y-103969257D01*
X153246197Y-104000000D01*
X153403783Y-104000000D01*
X153558341Y-103969257D01*
X153703932Y-103908951D01*
X153834960Y-103821401D01*
X153856361Y-103800000D01*
X155904218Y-103800000D01*
X155930743Y-103933351D01*
X155991049Y-104078942D01*
X156078599Y-104209970D01*
X156084263Y-104215634D01*
X155990030Y-104278599D01*
X155878599Y-104390030D01*
X155791049Y-104521058D01*
X155730743Y-104666649D01*
X155700000Y-104821207D01*
X155700000Y-104978793D01*
X155730743Y-105133351D01*
X155791049Y-105278942D01*
X155878599Y-105409970D01*
X155984263Y-105515634D01*
X155890030Y-105578599D01*
X155778599Y-105690030D01*
X155691049Y-105821058D01*
X155630743Y-105966649D01*
X155600000Y-106121207D01*
X155600000Y-106278793D01*
X155630743Y-106433351D01*
X155691049Y-106578942D01*
X155778599Y-106709970D01*
X155890030Y-106821401D01*
X156021058Y-106908951D01*
X156166649Y-106969257D01*
X156321207Y-107000000D01*
X156478793Y-107000000D01*
X156633351Y-106969257D01*
X156778942Y-106908951D01*
X156909970Y-106821401D01*
X157021401Y-106709970D01*
X157108951Y-106578942D01*
X157169257Y-106433351D01*
X157195781Y-106300000D01*
X166897581Y-106300000D01*
X166897581Y-108300000D01*
X166907235Y-108398017D01*
X166935825Y-108492267D01*
X166982254Y-108579129D01*
X167044736Y-108655264D01*
X167120871Y-108717746D01*
X167207733Y-108764175D01*
X167301983Y-108792765D01*
X167400000Y-108802419D01*
X169400000Y-108802419D01*
X169498017Y-108792765D01*
X169592267Y-108764175D01*
X169679129Y-108717746D01*
X169755264Y-108655264D01*
X169817746Y-108579129D01*
X169864175Y-108492267D01*
X169872070Y-108466238D01*
X172658026Y-108466238D01*
X172774487Y-108671335D01*
X173054040Y-108767017D01*
X173346889Y-108806322D01*
X173641778Y-108787740D01*
X173927376Y-108711985D01*
X174025513Y-108671335D01*
X174141974Y-108466238D01*
X173400000Y-107724264D01*
X172658026Y-108466238D01*
X169872070Y-108466238D01*
X169892765Y-108398017D01*
X169902419Y-108300000D01*
X169902419Y-107246889D01*
X171893678Y-107246889D01*
X171912260Y-107541778D01*
X171988015Y-107827376D01*
X172028665Y-107925513D01*
X172233762Y-108041974D01*
X172975736Y-107300000D01*
X173824264Y-107300000D01*
X174566238Y-108041974D01*
X174771335Y-107925513D01*
X174867017Y-107645960D01*
X174906322Y-107353111D01*
X174887740Y-107058222D01*
X174811985Y-106772624D01*
X174771335Y-106674487D01*
X174566238Y-106558026D01*
X173824264Y-107300000D01*
X172975736Y-107300000D01*
X172233762Y-106558026D01*
X172028665Y-106674487D01*
X171932983Y-106954040D01*
X171893678Y-107246889D01*
X169902419Y-107246889D01*
X169902419Y-106300000D01*
X169892765Y-106201983D01*
X169872071Y-106133762D01*
X172658026Y-106133762D01*
X173400000Y-106875736D01*
X174141974Y-106133762D01*
X174025513Y-105928665D01*
X173745960Y-105832983D01*
X173453111Y-105793678D01*
X173158222Y-105812260D01*
X172872624Y-105888015D01*
X172774487Y-105928665D01*
X172658026Y-106133762D01*
X169872071Y-106133762D01*
X169864175Y-106107733D01*
X169817746Y-106020871D01*
X169755264Y-105944736D01*
X169679129Y-105882254D01*
X169592267Y-105835825D01*
X169498017Y-105807235D01*
X169400000Y-105797581D01*
X167400000Y-105797581D01*
X167301983Y-105807235D01*
X167207733Y-105835825D01*
X167120871Y-105882254D01*
X167044736Y-105944736D01*
X166982254Y-106020871D01*
X166935825Y-106107733D01*
X166907235Y-106201983D01*
X166897581Y-106300000D01*
X157195781Y-106300000D01*
X157200000Y-106278793D01*
X157200000Y-106248527D01*
X159303420Y-104145108D01*
X159326317Y-104126317D01*
X159401296Y-104034955D01*
X159457010Y-103930721D01*
X159491318Y-103817621D01*
X159500000Y-103729474D01*
X159500000Y-103729473D01*
X159502903Y-103700000D01*
X159500000Y-103670526D01*
X159500000Y-100331371D01*
X159521401Y-100309970D01*
X159608951Y-100178942D01*
X159669257Y-100033351D01*
X159700000Y-99878793D01*
X159700000Y-99721207D01*
X159669257Y-99566649D01*
X159608951Y-99421058D01*
X159521401Y-99290030D01*
X159409970Y-99178599D01*
X159278942Y-99091049D01*
X159133351Y-99030743D01*
X158978793Y-99000000D01*
X158899998Y-99000000D01*
X158899998Y-95864033D01*
X164750000Y-95864033D01*
X164750001Y-98535968D01*
X164775322Y-98793060D01*
X164875389Y-99122936D01*
X165037889Y-99426952D01*
X165256577Y-99693424D01*
X165523049Y-99912112D01*
X165827065Y-100074612D01*
X166156941Y-100174679D01*
X166500000Y-100208467D01*
X166843060Y-100174679D01*
X167172936Y-100074612D01*
X167476952Y-99912112D01*
X167743424Y-99693424D01*
X167962112Y-99426952D01*
X168124612Y-99122936D01*
X168224679Y-98793060D01*
X168250000Y-98535968D01*
X168250000Y-97500000D01*
X170875000Y-97500000D01*
X170875000Y-98625000D01*
X170964751Y-98936257D01*
X171113501Y-99224024D01*
X171315533Y-99477242D01*
X171563083Y-99686180D01*
X171846639Y-99842809D01*
X171953857Y-99855475D01*
X172200000Y-99794694D01*
X172200000Y-97500000D01*
X172800000Y-97500000D01*
X172800000Y-99794694D01*
X173046143Y-99855475D01*
X173153361Y-99842809D01*
X173436917Y-99686180D01*
X173684467Y-99477242D01*
X173886499Y-99224024D01*
X174035249Y-98936257D01*
X174125000Y-98625000D01*
X174125000Y-97500000D01*
X172800000Y-97500000D01*
X172200000Y-97500000D01*
X170875000Y-97500000D01*
X168250000Y-97500000D01*
X168250000Y-95864032D01*
X168241232Y-95775000D01*
X170875000Y-95775000D01*
X170875000Y-96900000D01*
X172200000Y-96900000D01*
X172200000Y-94605306D01*
X172800000Y-94605306D01*
X172800000Y-96900000D01*
X174125000Y-96900000D01*
X174125000Y-95775000D01*
X174035249Y-95463743D01*
X173886499Y-95175976D01*
X173684467Y-94922758D01*
X173436917Y-94713820D01*
X173153361Y-94557191D01*
X173046143Y-94544525D01*
X172800000Y-94605306D01*
X172200000Y-94605306D01*
X171953857Y-94544525D01*
X171846639Y-94557191D01*
X171563083Y-94713820D01*
X171315533Y-94922758D01*
X171113501Y-95175976D01*
X170964751Y-95463743D01*
X170875000Y-95775000D01*
X168241232Y-95775000D01*
X168224679Y-95606940D01*
X168124612Y-95277064D01*
X167962112Y-94973048D01*
X167743424Y-94706576D01*
X167476951Y-94487888D01*
X167172935Y-94325388D01*
X166843059Y-94225321D01*
X166500000Y-94191533D01*
X166156940Y-94225321D01*
X165827064Y-94325388D01*
X165523048Y-94487888D01*
X165256576Y-94706576D01*
X165037888Y-94973049D01*
X164875388Y-95277065D01*
X164775321Y-95606941D01*
X164750000Y-95864033D01*
X158899998Y-95864033D01*
X158899998Y-93855131D01*
X159455130Y-93300000D01*
X159485395Y-93300000D01*
X159639953Y-93269257D01*
X159785544Y-93208951D01*
X159916572Y-93121401D01*
X160028003Y-93009970D01*
X160115553Y-92878942D01*
X160175859Y-92733351D01*
X160206602Y-92578793D01*
X160206602Y-92500000D01*
X166742138Y-92500000D01*
X166773513Y-92818556D01*
X166866432Y-93124869D01*
X167017325Y-93407170D01*
X167220392Y-93654608D01*
X167467830Y-93857675D01*
X167750131Y-94008568D01*
X168056444Y-94101487D01*
X168295176Y-94125000D01*
X170704824Y-94125000D01*
X170943556Y-94101487D01*
X171249869Y-94008568D01*
X171532170Y-93857675D01*
X171779608Y-93654608D01*
X171982675Y-93407170D01*
X172133568Y-93124869D01*
X172226487Y-92818556D01*
X172257862Y-92500000D01*
X172226487Y-92181444D01*
X172133568Y-91875131D01*
X171982675Y-91592830D01*
X171779608Y-91345392D01*
X171532170Y-91142325D01*
X171249869Y-90991432D01*
X170943556Y-90898513D01*
X170704824Y-90875000D01*
X168295176Y-90875000D01*
X168056444Y-90898513D01*
X167750131Y-90991432D01*
X167467830Y-91142325D01*
X167220392Y-91345392D01*
X167017325Y-91592830D01*
X166866432Y-91875131D01*
X166773513Y-92181444D01*
X166742138Y-92500000D01*
X160206602Y-92500000D01*
X160206602Y-92421207D01*
X160175859Y-92266649D01*
X160115553Y-92121058D01*
X160028003Y-91990030D01*
X159916572Y-91878599D01*
X159785544Y-91791049D01*
X159639953Y-91730743D01*
X159485395Y-91700000D01*
X159327809Y-91700000D01*
X159173251Y-91730743D01*
X159027660Y-91791049D01*
X158896632Y-91878599D01*
X158785201Y-91990030D01*
X158697651Y-92121058D01*
X158637345Y-92266649D01*
X158606602Y-92421207D01*
X158606602Y-92451472D01*
X157896579Y-93161496D01*
X157873682Y-93180287D01*
X157798703Y-93271649D01*
X157753078Y-93357008D01*
X157742989Y-93375883D01*
X157708680Y-93488984D01*
X157700000Y-93577110D01*
X157700000Y-92000000D01*
X157695723Y-91934737D01*
X157678686Y-91805327D01*
X157644903Y-91679248D01*
X157594953Y-91558658D01*
X157529688Y-91445617D01*
X157450228Y-91342064D01*
X157357936Y-91249772D01*
X157254383Y-91170312D01*
X157141342Y-91105047D01*
X157020752Y-91055097D01*
X156894673Y-91021314D01*
X156765263Y-91004277D01*
X156700000Y-91000000D01*
X149007008Y-91000000D01*
X149095781Y-90820045D01*
X148500000Y-90224264D01*
X147904219Y-90820045D01*
X147992992Y-91000000D01*
X138335411Y-91000000D01*
X138076952Y-90787888D01*
X137772936Y-90625388D01*
X137443060Y-90525321D01*
X137100000Y-90491533D01*
X136756941Y-90525321D01*
X136427065Y-90625388D01*
X136123049Y-90787888D01*
X135856577Y-91006576D01*
X135827330Y-91042213D01*
X135779248Y-91055097D01*
X135658658Y-91105047D01*
X135545617Y-91170312D01*
X135442064Y-91249772D01*
X135349772Y-91342064D01*
X135270312Y-91445617D01*
X135205047Y-91558658D01*
X135155097Y-91679248D01*
X135121314Y-91805327D01*
X135104277Y-91934737D01*
X135100000Y-92000000D01*
X135100000Y-92051472D01*
X132848688Y-89800161D01*
X132849731Y-89794914D01*
X147193719Y-89794914D01*
X147217827Y-90049855D01*
X147291209Y-90295193D01*
X147295101Y-90304591D01*
X147479955Y-90395781D01*
X148075736Y-89800000D01*
X148924264Y-89800000D01*
X149520045Y-90395781D01*
X149704899Y-90304591D01*
X149780189Y-90059831D01*
X149806281Y-89805086D01*
X149782173Y-89550145D01*
X149708791Y-89304807D01*
X149704899Y-89295409D01*
X149520045Y-89204219D01*
X148924264Y-89800000D01*
X148075736Y-89800000D01*
X147479955Y-89204219D01*
X147295101Y-89295409D01*
X147219811Y-89540169D01*
X147193719Y-89794914D01*
X132849731Y-89794914D01*
X132850000Y-89793567D01*
X132850000Y-89606433D01*
X132813492Y-89422895D01*
X132741879Y-89250006D01*
X132637913Y-89094410D01*
X132505590Y-88962087D01*
X132349994Y-88858121D01*
X132177105Y-88786508D01*
X132144161Y-88779955D01*
X147904219Y-88779955D01*
X148500000Y-89375736D01*
X149095781Y-88779955D01*
X149004591Y-88595101D01*
X148759831Y-88519811D01*
X148505086Y-88493719D01*
X148250145Y-88517827D01*
X148004807Y-88591209D01*
X147995409Y-88595101D01*
X147904219Y-88779955D01*
X132144161Y-88779955D01*
X131993567Y-88750000D01*
X131806433Y-88750000D01*
X131622895Y-88786508D01*
X131450006Y-88858121D01*
X131294410Y-88962087D01*
X131162087Y-89094410D01*
X131058121Y-89250006D01*
X130986508Y-89422895D01*
X130950000Y-89606433D01*
X123525000Y-89606433D01*
X123525000Y-87025680D01*
X123525067Y-87025000D01*
X180474320Y-87025000D01*
X180475001Y-87025067D01*
G04 #@! TA.AperFunction,Conductor*
D23*
G36*
X180475001Y-87025067D02*
G01*
X180475000Y-115974320D01*
X180474933Y-115975000D01*
X150190952Y-115975000D01*
X150228702Y-115949776D01*
X150409776Y-115768702D01*
X150552045Y-115555781D01*
X150598043Y-115444732D01*
X150688789Y-115535478D01*
X150804220Y-115420047D01*
X150895409Y-115604899D01*
X151140169Y-115680189D01*
X151394914Y-115706281D01*
X151649855Y-115682173D01*
X151895193Y-115608791D01*
X151904591Y-115604899D01*
X151995781Y-115420045D01*
X151400000Y-114824264D01*
X151385858Y-114838407D01*
X150961594Y-114414143D01*
X150975736Y-114400000D01*
X151824264Y-114400000D01*
X152420045Y-114995781D01*
X152604899Y-114904591D01*
X152680189Y-114659831D01*
X152706281Y-114405086D01*
X152682173Y-114150145D01*
X152608791Y-113904807D01*
X152604899Y-113895409D01*
X152420045Y-113804219D01*
X151824264Y-114400000D01*
X150975736Y-114400000D01*
X150379955Y-113804219D01*
X150195101Y-113895409D01*
X150191946Y-113905665D01*
X150015781Y-113787955D01*
X149779196Y-113689958D01*
X149678860Y-113670000D01*
X149779196Y-113650042D01*
X150015781Y-113552045D01*
X150228702Y-113409776D01*
X150409776Y-113228702D01*
X150552045Y-113015781D01*
X150603586Y-112891350D01*
X150784219Y-113012045D01*
X151020804Y-113110042D01*
X151114117Y-113128603D01*
X150904807Y-113191209D01*
X150895409Y-113195101D01*
X150804219Y-113379955D01*
X151400000Y-113975736D01*
X151995781Y-113379955D01*
X151904591Y-113195101D01*
X151687419Y-113128297D01*
X151779196Y-113110042D01*
X152015781Y-113012045D01*
X152228702Y-112869776D01*
X152409776Y-112688702D01*
X152552045Y-112475781D01*
X152650042Y-112239196D01*
X152700000Y-111988039D01*
X152700000Y-111731961D01*
X152650042Y-111480804D01*
X152552045Y-111244219D01*
X152409776Y-111031298D01*
X152228702Y-110850224D01*
X152015781Y-110707955D01*
X151779196Y-110609958D01*
X151528039Y-110560000D01*
X151271961Y-110560000D01*
X151020804Y-110609958D01*
X150784219Y-110707955D01*
X150571298Y-110850224D01*
X150390224Y-111031298D01*
X150247955Y-111244219D01*
X150196414Y-111368650D01*
X150015781Y-111247955D01*
X149779196Y-111149958D01*
X149528039Y-111100000D01*
X149271961Y-111100000D01*
X149020804Y-111149958D01*
X148784219Y-111247955D01*
X148571298Y-111390224D01*
X148390224Y-111571298D01*
X148247955Y-111784219D01*
X148149958Y-112020804D01*
X148100000Y-112271961D01*
X148100000Y-112528039D01*
X148149958Y-112779196D01*
X148247955Y-113015781D01*
X148390224Y-113228702D01*
X148571298Y-113409776D01*
X148784219Y-113552045D01*
X149020804Y-113650042D01*
X149121140Y-113670000D01*
X149020804Y-113689958D01*
X148784219Y-113787955D01*
X148571298Y-113930224D01*
X148390224Y-114111298D01*
X148247955Y-114324219D01*
X148149958Y-114560804D01*
X148100000Y-114811961D01*
X148100000Y-115068039D01*
X148149958Y-115319196D01*
X148247955Y-115555781D01*
X148390224Y-115768702D01*
X148571298Y-115949776D01*
X148609048Y-115975000D01*
X123525680Y-115975000D01*
X123525000Y-115974933D01*
X123525000Y-114820045D01*
X143554219Y-114820045D01*
X143645409Y-115004899D01*
X143890169Y-115080189D01*
X144144914Y-115106281D01*
X144399855Y-115082173D01*
X144645193Y-115008791D01*
X144654591Y-115004899D01*
X144745781Y-114820045D01*
X144150000Y-114224264D01*
X143554219Y-114820045D01*
X123525000Y-114820045D01*
X123525000Y-111439730D01*
X135954534Y-111439730D01*
X136114364Y-111680546D01*
X136454377Y-111811664D01*
X136813436Y-111873929D01*
X137177743Y-111864948D01*
X137533299Y-111785068D01*
X137785636Y-111680546D01*
X137945466Y-111439730D01*
X136950000Y-110444264D01*
X135954534Y-111439730D01*
X123525000Y-111439730D01*
X123525000Y-109883436D01*
X135096071Y-109883436D01*
X135105052Y-110247743D01*
X135184932Y-110603299D01*
X135289454Y-110855636D01*
X135530270Y-111015466D01*
X136525736Y-110020000D01*
X137374264Y-110020000D01*
X138369730Y-111015466D01*
X138610546Y-110855636D01*
X138741664Y-110515623D01*
X138803929Y-110156564D01*
X138794948Y-109792257D01*
X138715068Y-109436701D01*
X138610546Y-109184364D01*
X138369730Y-109024534D01*
X137374264Y-110020000D01*
X136525736Y-110020000D01*
X135530270Y-109024534D01*
X135289454Y-109184364D01*
X135158336Y-109524377D01*
X135096071Y-109883436D01*
X123525000Y-109883436D01*
X123525000Y-108600270D01*
X135954534Y-108600270D01*
X136950000Y-109595736D01*
X137945466Y-108600270D01*
X137785636Y-108359454D01*
X137445623Y-108228336D01*
X137086564Y-108166071D01*
X136722257Y-108175052D01*
X136366701Y-108254932D01*
X136114364Y-108359454D01*
X135954534Y-108600270D01*
X123525000Y-108600270D01*
X123525000Y-93800000D01*
X129475000Y-93800000D01*
X129475000Y-94925000D01*
X129564751Y-95236257D01*
X129713501Y-95524024D01*
X129915533Y-95777242D01*
X130163083Y-95986180D01*
X130446639Y-96142809D01*
X130553857Y-96155475D01*
X130800000Y-96094694D01*
X130800000Y-93800000D01*
X131400000Y-93800000D01*
X131400000Y-96094694D01*
X131646143Y-96155475D01*
X131753361Y-96142809D01*
X132036917Y-95986180D01*
X132284467Y-95777242D01*
X132486499Y-95524024D01*
X132635249Y-95236257D01*
X132725000Y-94925000D01*
X132725000Y-93800000D01*
X131400000Y-93800000D01*
X130800000Y-93800000D01*
X129475000Y-93800000D01*
X123525000Y-93800000D01*
X123525000Y-92075000D01*
X129475000Y-92075000D01*
X129475000Y-93200000D01*
X130800000Y-93200000D01*
X130800000Y-90905306D01*
X131400000Y-90905306D01*
X131400000Y-93200000D01*
X132725000Y-93200000D01*
X132725000Y-92075000D01*
X132635249Y-91763743D01*
X132486499Y-91475976D01*
X132284467Y-91222758D01*
X132036917Y-91013820D01*
X131753361Y-90857191D01*
X131646143Y-90844525D01*
X131400000Y-90905306D01*
X130800000Y-90905306D01*
X130553857Y-90844525D01*
X130446639Y-90857191D01*
X130163083Y-91013820D01*
X129915533Y-91222758D01*
X129713501Y-91475976D01*
X129564751Y-91763743D01*
X129475000Y-92075000D01*
X123525000Y-92075000D01*
X123525000Y-89606433D01*
X130950000Y-89606433D01*
X130950000Y-89793567D01*
X130986508Y-89977105D01*
X131058121Y-90149994D01*
X131162087Y-90305590D01*
X131294410Y-90437913D01*
X131450006Y-90541879D01*
X131622895Y-90613492D01*
X131806433Y-90650000D01*
X131993567Y-90650000D01*
X132000161Y-90648688D01*
X135100000Y-93748528D01*
X135100000Y-95700000D01*
X135104277Y-95765263D01*
X135121314Y-95894673D01*
X135155097Y-96020752D01*
X135205047Y-96141342D01*
X135270312Y-96254383D01*
X135349772Y-96357936D01*
X135442064Y-96450228D01*
X135545617Y-96529688D01*
X135658658Y-96594953D01*
X135779248Y-96644903D01*
X135905327Y-96678686D01*
X136034737Y-96695723D01*
X136100000Y-96700000D01*
X138237408Y-96700000D01*
X138315685Y-96693835D01*
X138470307Y-96669326D01*
X138527922Y-96656670D01*
X138619184Y-96620913D01*
X138726927Y-96565967D01*
X136832184Y-98460710D01*
X136857862Y-98200000D01*
X136826487Y-97881444D01*
X136733568Y-97575131D01*
X136582675Y-97292830D01*
X136379608Y-97045392D01*
X136132170Y-96842325D01*
X135849869Y-96691432D01*
X135543556Y-96598513D01*
X135304824Y-96575000D01*
X132895176Y-96575000D01*
X132656444Y-96598513D01*
X132350131Y-96691432D01*
X132067830Y-96842325D01*
X131820392Y-97045392D01*
X131617325Y-97292830D01*
X131466432Y-97575131D01*
X131373513Y-97881444D01*
X131342138Y-98200000D01*
X131373513Y-98518556D01*
X131466432Y-98824869D01*
X131617325Y-99107170D01*
X131820392Y-99354608D01*
X132067830Y-99557675D01*
X132350131Y-99708568D01*
X132656444Y-99801487D01*
X132895176Y-99825000D01*
X135304824Y-99825000D01*
X135485710Y-99807184D01*
X134892894Y-100400000D01*
X134849771Y-100449172D01*
X134770311Y-100552726D01*
X134705047Y-100665765D01*
X134655097Y-100786355D01*
X134621314Y-100912434D01*
X134604277Y-101041844D01*
X134600000Y-101107107D01*
X134600000Y-103400000D01*
X134604277Y-103465263D01*
X134621314Y-103594673D01*
X134655097Y-103720752D01*
X134705047Y-103841342D01*
X134770312Y-103954383D01*
X134849772Y-104057936D01*
X134942064Y-104150228D01*
X135045617Y-104229688D01*
X135158658Y-104294953D01*
X135279248Y-104344903D01*
X135405327Y-104378686D01*
X135534737Y-104395723D01*
X135600000Y-104400000D01*
X136123314Y-104400000D01*
X136073697Y-104420552D01*
X135770694Y-104623011D01*
X135513011Y-104880694D01*
X135310552Y-105183697D01*
X135171095Y-105520375D01*
X135100000Y-105877791D01*
X135100000Y-106242209D01*
X135171095Y-106599625D01*
X135310552Y-106936303D01*
X135513011Y-107239306D01*
X135770694Y-107496989D01*
X136073697Y-107699448D01*
X136410375Y-107838905D01*
X136767791Y-107910000D01*
X137132209Y-107910000D01*
X137489625Y-107838905D01*
X137826303Y-107699448D01*
X137867440Y-107671961D01*
X142360000Y-107671961D01*
X142360000Y-107928039D01*
X142409958Y-108179196D01*
X142507955Y-108415781D01*
X142650224Y-108628702D01*
X142831298Y-108809776D01*
X143044219Y-108952045D01*
X143119913Y-108983398D01*
X143014522Y-109088789D01*
X143129953Y-109204220D01*
X142945101Y-109295409D01*
X142869811Y-109540169D01*
X142843719Y-109794914D01*
X142867827Y-110049855D01*
X142941209Y-110295193D01*
X142945101Y-110304591D01*
X143129953Y-110395780D01*
X143014522Y-110511211D01*
X143119913Y-110616602D01*
X143044219Y-110647955D01*
X142831298Y-110790224D01*
X142650224Y-110971298D01*
X142507955Y-111184219D01*
X142409958Y-111420804D01*
X142360000Y-111671961D01*
X142360000Y-111928039D01*
X142409958Y-112179196D01*
X142507955Y-112415781D01*
X142650224Y-112628702D01*
X142831298Y-112809776D01*
X143044219Y-112952045D01*
X143119913Y-112983398D01*
X143014522Y-113088789D01*
X143129953Y-113204220D01*
X142945101Y-113295409D01*
X142869811Y-113540169D01*
X142843719Y-113794914D01*
X142867827Y-114049855D01*
X142941209Y-114295193D01*
X142945101Y-114304591D01*
X143129955Y-114395781D01*
X143725736Y-113800000D01*
X143711594Y-113785858D01*
X144135858Y-113361594D01*
X144150000Y-113375736D01*
X144745781Y-112779955D01*
X144670576Y-112627505D01*
X144812045Y-112415781D01*
X144910042Y-112179196D01*
X144930000Y-112078860D01*
X144949958Y-112179196D01*
X145047955Y-112415781D01*
X145190224Y-112628702D01*
X145371298Y-112809776D01*
X145584219Y-112952045D01*
X145669488Y-112987365D01*
X145537955Y-113184219D01*
X145439958Y-113420804D01*
X145421397Y-113514117D01*
X145358791Y-113304807D01*
X145354899Y-113295409D01*
X145170045Y-113204219D01*
X144574264Y-113800000D01*
X145170045Y-114395781D01*
X145354899Y-114304591D01*
X145421703Y-114087419D01*
X145439958Y-114179196D01*
X145537955Y-114415781D01*
X145680224Y-114628702D01*
X145861298Y-114809776D01*
X146074219Y-114952045D01*
X146310804Y-115050042D01*
X146561961Y-115100000D01*
X146818039Y-115100000D01*
X147069196Y-115050042D01*
X147305781Y-114952045D01*
X147518702Y-114809776D01*
X147699776Y-114628702D01*
X147842045Y-114415781D01*
X147940042Y-114179196D01*
X147990000Y-113928039D01*
X147990000Y-113671961D01*
X147940042Y-113420804D01*
X147842045Y-113184219D01*
X147699776Y-112971298D01*
X147518702Y-112790224D01*
X147305781Y-112647955D01*
X147220512Y-112612635D01*
X147352045Y-112415781D01*
X147450042Y-112179196D01*
X147500000Y-111928039D01*
X147500000Y-111671961D01*
X147450042Y-111420804D01*
X147352045Y-111184219D01*
X147220512Y-110987365D01*
X147305781Y-110952045D01*
X147518702Y-110809776D01*
X147699776Y-110628702D01*
X147842045Y-110415781D01*
X147940042Y-110179196D01*
X147990000Y-109928039D01*
X147990000Y-109671961D01*
X147940042Y-109420804D01*
X147842045Y-109184219D01*
X147699776Y-108971298D01*
X147518702Y-108790224D01*
X147305781Y-108647955D01*
X147220512Y-108612635D01*
X147352045Y-108415781D01*
X147450042Y-108179196D01*
X147500000Y-107928039D01*
X147500000Y-107671961D01*
X147450042Y-107420804D01*
X147352045Y-107184219D01*
X147209776Y-106971298D01*
X147028702Y-106790224D01*
X146815781Y-106647955D01*
X146579196Y-106549958D01*
X146328039Y-106500000D01*
X146071961Y-106500000D01*
X145820804Y-106549958D01*
X145584219Y-106647955D01*
X145371298Y-106790224D01*
X145190224Y-106971298D01*
X145047955Y-107184219D01*
X144949958Y-107420804D01*
X144930000Y-107521140D01*
X144910042Y-107420804D01*
X144812045Y-107184219D01*
X144669776Y-106971298D01*
X144488702Y-106790224D01*
X144275781Y-106647955D01*
X144149998Y-106595854D01*
X144149998Y-106041648D01*
X144155588Y-106037913D01*
X144287911Y-105905590D01*
X144391877Y-105749994D01*
X144463490Y-105577105D01*
X144499998Y-105393567D01*
X144499998Y-105206433D01*
X144463490Y-105022895D01*
X144391877Y-104850006D01*
X144287911Y-104694410D01*
X144155588Y-104562087D01*
X143999992Y-104458121D01*
X143827103Y-104386508D01*
X143643565Y-104350000D01*
X143456431Y-104350000D01*
X143272893Y-104386508D01*
X143100004Y-104458121D01*
X142944408Y-104562087D01*
X142812085Y-104694410D01*
X142708119Y-104850006D01*
X142636506Y-105022895D01*
X142599998Y-105206433D01*
X142599998Y-105393567D01*
X142636506Y-105577105D01*
X142708119Y-105749994D01*
X142812085Y-105905590D01*
X142944408Y-106037913D01*
X142949998Y-106041648D01*
X142949999Y-106710911D01*
X142831298Y-106790224D01*
X142650224Y-106971298D01*
X142507955Y-107184219D01*
X142409958Y-107420804D01*
X142360000Y-107671961D01*
X137867440Y-107671961D01*
X138129306Y-107496989D01*
X138386989Y-107239306D01*
X138589448Y-106936303D01*
X138728905Y-106599625D01*
X138800000Y-106242209D01*
X138800000Y-105877791D01*
X138728905Y-105520375D01*
X138589448Y-105183697D01*
X138386989Y-104880694D01*
X138129306Y-104623011D01*
X137826303Y-104420552D01*
X137776686Y-104400000D01*
X138185145Y-104400000D01*
X138252583Y-104395431D01*
X138386223Y-104377240D01*
X138516187Y-104341192D01*
X138640103Y-104287944D01*
X138755706Y-104218469D01*
X138860881Y-104134038D01*
X138876081Y-104120045D01*
X144454219Y-104120045D01*
X144545409Y-104304899D01*
X144790169Y-104380189D01*
X145044914Y-104406281D01*
X145299855Y-104382173D01*
X145545193Y-104308791D01*
X145554591Y-104304899D01*
X145645781Y-104120045D01*
X145050000Y-103524264D01*
X144454219Y-104120045D01*
X138876081Y-104120045D01*
X138910608Y-104088260D01*
X142291541Y-100524576D01*
X142316729Y-100504356D01*
X142348727Y-100500000D01*
X143401418Y-100500000D01*
X143309958Y-100720804D01*
X143260000Y-100971961D01*
X143260000Y-101228039D01*
X143309958Y-101479196D01*
X143407955Y-101715781D01*
X143550224Y-101928702D01*
X143731298Y-102109776D01*
X143944219Y-102252045D01*
X144019913Y-102283398D01*
X143914522Y-102388789D01*
X144029953Y-102504220D01*
X143845101Y-102595409D01*
X143769811Y-102840169D01*
X143743719Y-103094914D01*
X143767827Y-103349855D01*
X143841209Y-103595193D01*
X143845101Y-103604591D01*
X144029955Y-103695781D01*
X144625736Y-103100000D01*
X144611594Y-103085858D01*
X145035858Y-102661594D01*
X145050000Y-102675736D01*
X145645781Y-102079955D01*
X145570576Y-101927505D01*
X145712045Y-101715781D01*
X145810042Y-101479196D01*
X145830000Y-101378860D01*
X145849958Y-101479196D01*
X145947955Y-101715781D01*
X146090224Y-101928702D01*
X146271298Y-102109776D01*
X146484219Y-102252045D01*
X146569488Y-102287365D01*
X146437955Y-102484219D01*
X146339958Y-102720804D01*
X146321397Y-102814117D01*
X146258791Y-102604807D01*
X146254899Y-102595409D01*
X146070045Y-102504219D01*
X145474264Y-103100000D01*
X146070045Y-103695781D01*
X146254899Y-103604591D01*
X146321703Y-103387419D01*
X146339958Y-103479196D01*
X146437955Y-103715781D01*
X146580224Y-103928702D01*
X146761298Y-104109776D01*
X146974219Y-104252045D01*
X147210804Y-104350042D01*
X147461961Y-104400000D01*
X147718039Y-104400000D01*
X147969196Y-104350042D01*
X148205781Y-104252045D01*
X148418702Y-104109776D01*
X148599776Y-103928702D01*
X148742045Y-103715781D01*
X148840042Y-103479196D01*
X148890000Y-103228039D01*
X148890000Y-102971961D01*
X148840042Y-102720804D01*
X148742045Y-102484219D01*
X148599776Y-102271298D01*
X148418702Y-102090224D01*
X148205781Y-101947955D01*
X148120512Y-101912635D01*
X148252045Y-101715781D01*
X148350042Y-101479196D01*
X148400000Y-101228039D01*
X148400000Y-100971961D01*
X148350042Y-100720804D01*
X148258582Y-100500000D01*
X156551473Y-100500000D01*
X156196581Y-100854892D01*
X156173684Y-100873683D01*
X156098705Y-100965045D01*
X156042990Y-101069279D01*
X156008682Y-101182379D01*
X156004185Y-101228039D01*
X155997097Y-101300000D01*
X156000000Y-101329474D01*
X156000000Y-101468629D01*
X155978599Y-101490030D01*
X155891049Y-101621058D01*
X155830743Y-101766649D01*
X155800000Y-101921207D01*
X155800000Y-102078793D01*
X155830743Y-102233351D01*
X155891049Y-102378942D01*
X155978599Y-102509970D01*
X156068629Y-102600000D01*
X153856361Y-102600000D01*
X153834960Y-102578599D01*
X153703932Y-102491049D01*
X153558341Y-102430743D01*
X153403783Y-102400000D01*
X153246197Y-102400000D01*
X153091639Y-102430743D01*
X152946048Y-102491049D01*
X152815020Y-102578599D01*
X152703589Y-102690030D01*
X152616039Y-102821058D01*
X152555733Y-102966649D01*
X152524990Y-103121207D01*
X152524990Y-103278793D01*
X152555733Y-103433351D01*
X152616039Y-103578942D01*
X152703589Y-103709970D01*
X152815020Y-103821401D01*
X152946048Y-103908951D01*
X153091639Y-103969257D01*
X153246197Y-104000000D01*
X153403783Y-104000000D01*
X153558341Y-103969257D01*
X153703932Y-103908951D01*
X153834960Y-103821401D01*
X153856361Y-103800000D01*
X155904218Y-103800000D01*
X155930743Y-103933351D01*
X155991049Y-104078942D01*
X156078599Y-104209970D01*
X156084263Y-104215634D01*
X155990030Y-104278599D01*
X155878599Y-104390030D01*
X155791049Y-104521058D01*
X155730743Y-104666649D01*
X155700000Y-104821207D01*
X155700000Y-104978793D01*
X155730743Y-105133351D01*
X155791049Y-105278942D01*
X155878599Y-105409970D01*
X155984263Y-105515634D01*
X155890030Y-105578599D01*
X155778599Y-105690030D01*
X155691049Y-105821058D01*
X155630743Y-105966649D01*
X155600000Y-106121207D01*
X155600000Y-106278793D01*
X155630743Y-106433351D01*
X155691049Y-106578942D01*
X155778599Y-106709970D01*
X155890030Y-106821401D01*
X156021058Y-106908951D01*
X156166649Y-106969257D01*
X156321207Y-107000000D01*
X156478793Y-107000000D01*
X156633351Y-106969257D01*
X156778942Y-106908951D01*
X156909970Y-106821401D01*
X157021401Y-106709970D01*
X157108951Y-106578942D01*
X157169257Y-106433351D01*
X157195781Y-106300000D01*
X166897581Y-106300000D01*
X166897581Y-108300000D01*
X166907235Y-108398017D01*
X166935825Y-108492267D01*
X166982254Y-108579129D01*
X167044736Y-108655264D01*
X167120871Y-108717746D01*
X167207733Y-108764175D01*
X167301983Y-108792765D01*
X167400000Y-108802419D01*
X169400000Y-108802419D01*
X169498017Y-108792765D01*
X169592267Y-108764175D01*
X169679129Y-108717746D01*
X169755264Y-108655264D01*
X169817746Y-108579129D01*
X169864175Y-108492267D01*
X169872070Y-108466238D01*
X172658026Y-108466238D01*
X172774487Y-108671335D01*
X173054040Y-108767017D01*
X173346889Y-108806322D01*
X173641778Y-108787740D01*
X173927376Y-108711985D01*
X174025513Y-108671335D01*
X174141974Y-108466238D01*
X173400000Y-107724264D01*
X172658026Y-108466238D01*
X169872070Y-108466238D01*
X169892765Y-108398017D01*
X169902419Y-108300000D01*
X169902419Y-107246889D01*
X171893678Y-107246889D01*
X171912260Y-107541778D01*
X171988015Y-107827376D01*
X172028665Y-107925513D01*
X172233762Y-108041974D01*
X172975736Y-107300000D01*
X173824264Y-107300000D01*
X174566238Y-108041974D01*
X174771335Y-107925513D01*
X174867017Y-107645960D01*
X174906322Y-107353111D01*
X174887740Y-107058222D01*
X174811985Y-106772624D01*
X174771335Y-106674487D01*
X174566238Y-106558026D01*
X173824264Y-107300000D01*
X172975736Y-107300000D01*
X172233762Y-106558026D01*
X172028665Y-106674487D01*
X171932983Y-106954040D01*
X171893678Y-107246889D01*
X169902419Y-107246889D01*
X169902419Y-106300000D01*
X169892765Y-106201983D01*
X169872071Y-106133762D01*
X172658026Y-106133762D01*
X173400000Y-106875736D01*
X174141974Y-106133762D01*
X174025513Y-105928665D01*
X173745960Y-105832983D01*
X173453111Y-105793678D01*
X173158222Y-105812260D01*
X172872624Y-105888015D01*
X172774487Y-105928665D01*
X172658026Y-106133762D01*
X169872071Y-106133762D01*
X169864175Y-106107733D01*
X169817746Y-106020871D01*
X169755264Y-105944736D01*
X169679129Y-105882254D01*
X169592267Y-105835825D01*
X169498017Y-105807235D01*
X169400000Y-105797581D01*
X167400000Y-105797581D01*
X167301983Y-105807235D01*
X167207733Y-105835825D01*
X167120871Y-105882254D01*
X167044736Y-105944736D01*
X166982254Y-106020871D01*
X166935825Y-106107733D01*
X166907235Y-106201983D01*
X166897581Y-106300000D01*
X157195781Y-106300000D01*
X157200000Y-106278793D01*
X157200000Y-106248527D01*
X159303420Y-104145108D01*
X159326317Y-104126317D01*
X159401296Y-104034955D01*
X159457010Y-103930721D01*
X159491318Y-103817621D01*
X159500000Y-103729474D01*
X159500000Y-103729473D01*
X159502903Y-103700000D01*
X159500000Y-103670526D01*
X159500000Y-100331371D01*
X159521401Y-100309970D01*
X159608951Y-100178942D01*
X159669257Y-100033351D01*
X159700000Y-99878793D01*
X159700000Y-99721207D01*
X159669257Y-99566649D01*
X159608951Y-99421058D01*
X159521401Y-99290030D01*
X159409970Y-99178599D01*
X159278942Y-99091049D01*
X159133351Y-99030743D01*
X158978793Y-99000000D01*
X158899998Y-99000000D01*
X158899998Y-95864033D01*
X164750000Y-95864033D01*
X164750001Y-98535968D01*
X164775322Y-98793060D01*
X164875389Y-99122936D01*
X165037889Y-99426952D01*
X165256577Y-99693424D01*
X165523049Y-99912112D01*
X165827065Y-100074612D01*
X166156941Y-100174679D01*
X166500000Y-100208467D01*
X166843060Y-100174679D01*
X167172936Y-100074612D01*
X167476952Y-99912112D01*
X167743424Y-99693424D01*
X167962112Y-99426952D01*
X168124612Y-99122936D01*
X168224679Y-98793060D01*
X168250000Y-98535968D01*
X168250000Y-97500000D01*
X170875000Y-97500000D01*
X170875000Y-98625000D01*
X170964751Y-98936257D01*
X171113501Y-99224024D01*
X171315533Y-99477242D01*
X171563083Y-99686180D01*
X171846639Y-99842809D01*
X171953857Y-99855475D01*
X172200000Y-99794694D01*
X172200000Y-97500000D01*
X172800000Y-97500000D01*
X172800000Y-99794694D01*
X173046143Y-99855475D01*
X173153361Y-99842809D01*
X173436917Y-99686180D01*
X173684467Y-99477242D01*
X173886499Y-99224024D01*
X174035249Y-98936257D01*
X174125000Y-98625000D01*
X174125000Y-97500000D01*
X172800000Y-97500000D01*
X172200000Y-97500000D01*
X170875000Y-97500000D01*
X168250000Y-97500000D01*
X168250000Y-95864032D01*
X168241232Y-95775000D01*
X170875000Y-95775000D01*
X170875000Y-96900000D01*
X172200000Y-96900000D01*
X172200000Y-94605306D01*
X172800000Y-94605306D01*
X172800000Y-96900000D01*
X174125000Y-96900000D01*
X174125000Y-95775000D01*
X174035249Y-95463743D01*
X173886499Y-95175976D01*
X173684467Y-94922758D01*
X173436917Y-94713820D01*
X173153361Y-94557191D01*
X173046143Y-94544525D01*
X172800000Y-94605306D01*
X172200000Y-94605306D01*
X171953857Y-94544525D01*
X171846639Y-94557191D01*
X171563083Y-94713820D01*
X171315533Y-94922758D01*
X171113501Y-95175976D01*
X170964751Y-95463743D01*
X170875000Y-95775000D01*
X168241232Y-95775000D01*
X168224679Y-95606940D01*
X168124612Y-95277064D01*
X167962112Y-94973048D01*
X167743424Y-94706576D01*
X167476951Y-94487888D01*
X167172935Y-94325388D01*
X166843059Y-94225321D01*
X166500000Y-94191533D01*
X166156940Y-94225321D01*
X165827064Y-94325388D01*
X165523048Y-94487888D01*
X165256576Y-94706576D01*
X165037888Y-94973049D01*
X164875388Y-95277065D01*
X164775321Y-95606941D01*
X164750000Y-95864033D01*
X158899998Y-95864033D01*
X158899998Y-93855131D01*
X159455130Y-93300000D01*
X159485395Y-93300000D01*
X159639953Y-93269257D01*
X159785544Y-93208951D01*
X159916572Y-93121401D01*
X160028003Y-93009970D01*
X160115553Y-92878942D01*
X160175859Y-92733351D01*
X160206602Y-92578793D01*
X160206602Y-92500000D01*
X166742138Y-92500000D01*
X166773513Y-92818556D01*
X166866432Y-93124869D01*
X167017325Y-93407170D01*
X167220392Y-93654608D01*
X167467830Y-93857675D01*
X167750131Y-94008568D01*
X168056444Y-94101487D01*
X168295176Y-94125000D01*
X170704824Y-94125000D01*
X170943556Y-94101487D01*
X171249869Y-94008568D01*
X171532170Y-93857675D01*
X171779608Y-93654608D01*
X171982675Y-93407170D01*
X172133568Y-93124869D01*
X172226487Y-92818556D01*
X172257862Y-92500000D01*
X172226487Y-92181444D01*
X172133568Y-91875131D01*
X171982675Y-91592830D01*
X171779608Y-91345392D01*
X171532170Y-91142325D01*
X171249869Y-90991432D01*
X170943556Y-90898513D01*
X170704824Y-90875000D01*
X168295176Y-90875000D01*
X168056444Y-90898513D01*
X167750131Y-90991432D01*
X167467830Y-91142325D01*
X167220392Y-91345392D01*
X167017325Y-91592830D01*
X166866432Y-91875131D01*
X166773513Y-92181444D01*
X166742138Y-92500000D01*
X160206602Y-92500000D01*
X160206602Y-92421207D01*
X160175859Y-92266649D01*
X160115553Y-92121058D01*
X160028003Y-91990030D01*
X159916572Y-91878599D01*
X159785544Y-91791049D01*
X159639953Y-91730743D01*
X159485395Y-91700000D01*
X159327809Y-91700000D01*
X159173251Y-91730743D01*
X159027660Y-91791049D01*
X158896632Y-91878599D01*
X158785201Y-91990030D01*
X158697651Y-92121058D01*
X158637345Y-92266649D01*
X158606602Y-92421207D01*
X158606602Y-92451472D01*
X157896579Y-93161496D01*
X157873682Y-93180287D01*
X157798703Y-93271649D01*
X157753078Y-93357008D01*
X157742989Y-93375883D01*
X157708680Y-93488984D01*
X157700000Y-93577110D01*
X157700000Y-92000000D01*
X157695723Y-91934737D01*
X157678686Y-91805327D01*
X157644903Y-91679248D01*
X157594953Y-91558658D01*
X157529688Y-91445617D01*
X157450228Y-91342064D01*
X157357936Y-91249772D01*
X157254383Y-91170312D01*
X157141342Y-91105047D01*
X157020752Y-91055097D01*
X156894673Y-91021314D01*
X156765263Y-91004277D01*
X156700000Y-91000000D01*
X149007008Y-91000000D01*
X149095781Y-90820045D01*
X148500000Y-90224264D01*
X147904219Y-90820045D01*
X147992992Y-91000000D01*
X138335411Y-91000000D01*
X138076952Y-90787888D01*
X137772936Y-90625388D01*
X137443060Y-90525321D01*
X137100000Y-90491533D01*
X136756941Y-90525321D01*
X136427065Y-90625388D01*
X136123049Y-90787888D01*
X135856577Y-91006576D01*
X135827330Y-91042213D01*
X135779248Y-91055097D01*
X135658658Y-91105047D01*
X135545617Y-91170312D01*
X135442064Y-91249772D01*
X135349772Y-91342064D01*
X135270312Y-91445617D01*
X135205047Y-91558658D01*
X135155097Y-91679248D01*
X135121314Y-91805327D01*
X135104277Y-91934737D01*
X135100000Y-92000000D01*
X135100000Y-92051472D01*
X132848688Y-89800161D01*
X132849731Y-89794914D01*
X147193719Y-89794914D01*
X147217827Y-90049855D01*
X147291209Y-90295193D01*
X147295101Y-90304591D01*
X147479955Y-90395781D01*
X148075736Y-89800000D01*
X148924264Y-89800000D01*
X149520045Y-90395781D01*
X149704899Y-90304591D01*
X149780189Y-90059831D01*
X149806281Y-89805086D01*
X149782173Y-89550145D01*
X149708791Y-89304807D01*
X149704899Y-89295409D01*
X149520045Y-89204219D01*
X148924264Y-89800000D01*
X148075736Y-89800000D01*
X147479955Y-89204219D01*
X147295101Y-89295409D01*
X147219811Y-89540169D01*
X147193719Y-89794914D01*
X132849731Y-89794914D01*
X132850000Y-89793567D01*
X132850000Y-89606433D01*
X132813492Y-89422895D01*
X132741879Y-89250006D01*
X132637913Y-89094410D01*
X132505590Y-88962087D01*
X132349994Y-88858121D01*
X132177105Y-88786508D01*
X132144161Y-88779955D01*
X147904219Y-88779955D01*
X148500000Y-89375736D01*
X149095781Y-88779955D01*
X149004591Y-88595101D01*
X148759831Y-88519811D01*
X148505086Y-88493719D01*
X148250145Y-88517827D01*
X148004807Y-88591209D01*
X147995409Y-88595101D01*
X147904219Y-88779955D01*
X132144161Y-88779955D01*
X131993567Y-88750000D01*
X131806433Y-88750000D01*
X131622895Y-88786508D01*
X131450006Y-88858121D01*
X131294410Y-88962087D01*
X131162087Y-89094410D01*
X131058121Y-89250006D01*
X130986508Y-89422895D01*
X130950000Y-89606433D01*
X123525000Y-89606433D01*
X123525000Y-87025680D01*
X123525067Y-87025000D01*
X180474320Y-87025000D01*
X180475001Y-87025067D01*
G37*
G04 #@! TD.AperFunction*
D22*
X144949958Y-108179196D02*
X145047955Y-108415781D01*
X145190224Y-108628702D01*
X145371298Y-108809776D01*
X145584219Y-108952045D01*
X145669488Y-108987365D01*
X145537955Y-109184219D01*
X145439958Y-109420804D01*
X145421397Y-109514117D01*
X145358791Y-109304807D01*
X145354899Y-109295409D01*
X145170045Y-109204219D01*
X144574264Y-109800000D01*
X145170045Y-110395781D01*
X145354899Y-110304591D01*
X145421703Y-110087419D01*
X145439958Y-110179196D01*
X145537955Y-110415781D01*
X145669488Y-110612635D01*
X145584219Y-110647955D01*
X145371298Y-110790224D01*
X145190224Y-110971298D01*
X145047955Y-111184219D01*
X144949958Y-111420804D01*
X144930000Y-111521140D01*
X144910042Y-111420804D01*
X144812045Y-111184219D01*
X144670576Y-110972495D01*
X144745781Y-110820045D01*
X144150000Y-110224264D01*
X144135858Y-110238407D01*
X143711594Y-109814143D01*
X143725736Y-109800000D01*
X143711594Y-109785858D01*
X144135858Y-109361594D01*
X144150000Y-109375736D01*
X144745781Y-108779955D01*
X144670576Y-108627505D01*
X144812045Y-108415781D01*
X144910042Y-108179196D01*
X144930000Y-108078860D01*
X144949958Y-108179196D01*
G04 #@! TA.AperFunction,Conductor*
D23*
G36*
X144949958Y-108179196D02*
G01*
X145047955Y-108415781D01*
X145190224Y-108628702D01*
X145371298Y-108809776D01*
X145584219Y-108952045D01*
X145669488Y-108987365D01*
X145537955Y-109184219D01*
X145439958Y-109420804D01*
X145421397Y-109514117D01*
X145358791Y-109304807D01*
X145354899Y-109295409D01*
X145170045Y-109204219D01*
X144574264Y-109800000D01*
X145170045Y-110395781D01*
X145354899Y-110304591D01*
X145421703Y-110087419D01*
X145439958Y-110179196D01*
X145537955Y-110415781D01*
X145669488Y-110612635D01*
X145584219Y-110647955D01*
X145371298Y-110790224D01*
X145190224Y-110971298D01*
X145047955Y-111184219D01*
X144949958Y-111420804D01*
X144930000Y-111521140D01*
X144910042Y-111420804D01*
X144812045Y-111184219D01*
X144670576Y-110972495D01*
X144745781Y-110820045D01*
X144150000Y-110224264D01*
X144135858Y-110238407D01*
X143711594Y-109814143D01*
X143725736Y-109800000D01*
X143711594Y-109785858D01*
X144135858Y-109361594D01*
X144150000Y-109375736D01*
X144745781Y-108779955D01*
X144670576Y-108627505D01*
X144812045Y-108415781D01*
X144910042Y-108179196D01*
X144930000Y-108078860D01*
X144949958Y-108179196D01*
G37*
G04 #@! TD.AperFunction*
D24*
X156816357Y-91565750D02*
X156924786Y-91610663D01*
X157017893Y-91682107D01*
X157089337Y-91775214D01*
X157134250Y-91883643D01*
X157150000Y-92003275D01*
X157150000Y-94896725D01*
X157134250Y-95016357D01*
X157089337Y-95124786D01*
X157017893Y-95217893D01*
X156924786Y-95289337D01*
X156816357Y-95334250D01*
X156696725Y-95350000D01*
X139662592Y-95350000D01*
X139654764Y-95350617D01*
X139500142Y-95375126D01*
X139490658Y-95377602D01*
X139485255Y-95379967D01*
X139345791Y-95451090D01*
X139339097Y-95455195D01*
X138505266Y-96061618D01*
X138376375Y-96127349D01*
X138233473Y-96150000D01*
X136103275Y-96150000D01*
X135983643Y-96134250D01*
X135875214Y-96089337D01*
X135782107Y-96017893D01*
X135710663Y-95924786D01*
X135665750Y-95816357D01*
X135650000Y-95696725D01*
X135650000Y-92003275D01*
X135665750Y-91883643D01*
X135710663Y-91775214D01*
X135782107Y-91682107D01*
X135875214Y-91610663D01*
X135983643Y-91565750D01*
X136103275Y-91550000D01*
X156696725Y-91550000D01*
X156816357Y-91565750D01*
G04 #@! TA.AperFunction,Conductor*
D23*
G36*
X156816357Y-91565750D02*
G01*
X156924786Y-91610663D01*
X157017893Y-91682107D01*
X157089337Y-91775214D01*
X157134250Y-91883643D01*
X157150000Y-92003275D01*
X157150000Y-94896725D01*
X157134250Y-95016357D01*
X157089337Y-95124786D01*
X157017893Y-95217893D01*
X156924786Y-95289337D01*
X156816357Y-95334250D01*
X156696725Y-95350000D01*
X139662592Y-95350000D01*
X139654764Y-95350617D01*
X139500142Y-95375126D01*
X139490658Y-95377602D01*
X139485255Y-95379967D01*
X139345791Y-95451090D01*
X139339097Y-95455195D01*
X138505266Y-96061618D01*
X138376375Y-96127349D01*
X138233473Y-96150000D01*
X136103275Y-96150000D01*
X135983643Y-96134250D01*
X135875214Y-96089337D01*
X135782107Y-96017893D01*
X135710663Y-95924786D01*
X135665750Y-95816357D01*
X135650000Y-95696725D01*
X135650000Y-92003275D01*
X135665750Y-91883643D01*
X135710663Y-91775214D01*
X135782107Y-91682107D01*
X135875214Y-91610663D01*
X135983643Y-91565750D01*
X136103275Y-91550000D01*
X156696725Y-91550000D01*
X156816357Y-91565750D01*
G37*
G04 #@! TD.AperFunction*
D24*
X156816357Y-96065750D02*
X156924786Y-96110663D01*
X157017893Y-96182107D01*
X157089337Y-96275214D01*
X157134250Y-96383643D01*
X157150000Y-96503275D01*
X157150000Y-99496725D01*
X157134250Y-99616357D01*
X157089337Y-99724786D01*
X157017893Y-99817893D01*
X156924786Y-99889337D01*
X156816357Y-99934250D01*
X156696725Y-99950000D01*
X142314855Y-99950000D01*
X142308111Y-99950457D01*
X142174471Y-99968648D01*
X142161475Y-99972253D01*
X142037559Y-100025501D01*
X142025999Y-100032448D01*
X141920824Y-100116879D01*
X141915851Y-100121457D01*
X138513934Y-103707260D01*
X138416707Y-103785310D01*
X138305299Y-103833184D01*
X138181758Y-103850000D01*
X135603275Y-103850000D01*
X135483643Y-103834250D01*
X135375214Y-103789337D01*
X135282107Y-103717893D01*
X135210663Y-103624786D01*
X135165750Y-103516357D01*
X135150000Y-103396725D01*
X135150000Y-101110382D01*
X135165750Y-100990750D01*
X135210661Y-100882324D01*
X135284123Y-100786587D01*
X139886587Y-96184123D01*
X139982324Y-96110661D01*
X140090750Y-96065750D01*
X140210382Y-96050000D01*
X156696725Y-96050000D01*
X156816357Y-96065750D01*
G04 #@! TA.AperFunction,Conductor*
D23*
G36*
X156816357Y-96065750D02*
G01*
X156924786Y-96110663D01*
X157017893Y-96182107D01*
X157089337Y-96275214D01*
X157134250Y-96383643D01*
X157150000Y-96503275D01*
X157150000Y-99496725D01*
X157134250Y-99616357D01*
X157089337Y-99724786D01*
X157017893Y-99817893D01*
X156924786Y-99889337D01*
X156816357Y-99934250D01*
X156696725Y-99950000D01*
X142314855Y-99950000D01*
X142308111Y-99950457D01*
X142174471Y-99968648D01*
X142161475Y-99972253D01*
X142037559Y-100025501D01*
X142025999Y-100032448D01*
X141920824Y-100116879D01*
X141915851Y-100121457D01*
X138513934Y-103707260D01*
X138416707Y-103785310D01*
X138305299Y-103833184D01*
X138181758Y-103850000D01*
X135603275Y-103850000D01*
X135483643Y-103834250D01*
X135375214Y-103789337D01*
X135282107Y-103717893D01*
X135210663Y-103624786D01*
X135165750Y-103516357D01*
X135150000Y-103396725D01*
X135150000Y-101110382D01*
X135165750Y-100990750D01*
X135210661Y-100882324D01*
X135284123Y-100786587D01*
X139886587Y-96184123D01*
X139982324Y-96110661D01*
X140090750Y-96065750D01*
X140210382Y-96050000D01*
X156696725Y-96050000D01*
X156816357Y-96065750D01*
G37*
G04 #@! TD.AperFunction*
M02*
